<svg width="43" height="49" viewBox="0 0 43 49" fill="none" xmlns="http://www.w3.org/2000/svg">
<g id="back 1">
<path id="Vector" d="M9.3684 22.8647H35.7366C36.0862 22.8647 36.4216 23.0206 36.6688 23.298C36.9161 23.5754 37.055 23.9516 37.055 24.3439C37.055 24.7362 36.9161 25.1125 36.6688 25.3899C36.4216 25.6673 36.0862 25.8231 35.7366 25.8231H9.3684C9.01873 25.8231 8.68339 25.6673 8.43614 25.3899C8.18889 25.1125 8.04999 24.7362 8.04999 24.3439C8.04999 23.9516 8.18889 23.5754 8.43614 23.298C8.68339 23.0206 9.01873 22.8647 9.3684 22.8647Z" fill="black"/>
<path id="Vector_2" d="M9.91418 24.3439L20.8491 36.6094C21.0966 36.8871 21.2357 37.2638 21.2357 37.6566C21.2357 38.0494 21.0966 38.4261 20.8491 38.7039C20.6015 38.9816 20.2657 39.1377 19.9156 39.1377C19.5655 39.1377 19.2297 38.9816 18.9822 38.7039L7.11652 25.3911C6.99374 25.2537 6.89633 25.0905 6.82986 24.9108C6.7634 24.7311 6.72919 24.5384 6.72919 24.3439C6.72919 24.1493 6.7634 23.9567 6.82986 23.7769C6.89633 23.5972 6.99374 23.434 7.11652 23.2966L18.9822 9.98384C19.2297 9.70609 19.5655 9.55005 19.9156 9.55005C20.2657 9.55005 20.6015 9.70609 20.8491 9.98384C21.0966 10.2616 21.2357 10.6383 21.2357 11.0311C21.2357 11.4239 21.0966 11.8006 20.8491 12.0784L9.91418 24.3439Z" fill="black"/>
</g>
</svg>
