<svg width="70" height="70" viewBox="0 0 70 70" fill="none" xmlns="http://www.w3.org/2000/svg">
<g id="camera-linear 1" clip-path="url(#clip0_88_320)">
<g id="Group">
<path id="Vector" d="M29.1667 37.9167C33.9992 37.9167 37.9167 33.9992 37.9167 29.1667C37.9167 24.3343 33.9992 20.4167 29.1667 20.4167C24.3342 20.4167 20.4167 24.3343 20.4167 29.1667C20.4167 33.9992 24.3342 37.9167 29.1667 37.9167Z" stroke="#F55656" stroke-width="0.75"/>
<path id="Vector_2" d="M22.6858 52.5001H35.6475C44.7504 52.5001 49.3033 52.5001 52.5729 50.3564C53.9837 49.4317 55.1987 48.2385 56.1487 46.8447C58.3333 43.6364 58.3333 39.1651 58.3333 30.2285C58.3333 21.2889 58.3333 16.8206 56.1487 13.6122C55.1988 12.2184 53.9837 11.0251 52.5729 10.1006C50.4729 8.72097 47.8421 8.22805 43.8142 8.05305C41.8921 8.05305 40.2383 6.62389 39.8621 4.7718C39.5745 3.41517 38.8274 2.19941 37.7471 1.32999C36.6667 0.460577 35.3192 -0.00917237 33.9325 0.000135715H24.4008C21.5192 0.000135715 19.0371 1.99805 18.4712 4.7718C18.095 6.62389 16.4412 8.05305 14.5192 8.05305C10.4942 8.22805 7.86333 8.72389 5.76042 10.1006C4.35056 11.0253 3.13651 12.2186 2.1875 13.6122C0 16.8206 0 21.2889 0 30.2285C0 39.1651 1.73847e-07 43.6335 2.18458 46.8447C3.12958 48.2331 4.34292 49.426 5.76042 50.3564C9.03 52.5001 13.5829 52.5001 22.6858 52.5001Z" stroke="#F55656" stroke-width="0.75"/>
<path id="Vector_3" d="M49.5834 20.4167H46.6667" stroke="#F55656" stroke-width="0.75" stroke-linecap="round"/>
</g>
</g>
<defs>
<clipPath id="clip0_88_320">
<rect width="70" height="70" fill="white"/>
</clipPath>
</defs>
</svg>
