<svg width="1126" height="919" viewBox="0 0 1126 919" fill="none" xmlns="http://www.w3.org/2000/svg">
<path d="M981.478 435.312C982.519 430.701 983.046 426.023 983.054 421.334C983.054 380.319 943.644 347.07 895.148 347.07C846.651 347.07 807.241 380.319 807.241 421.334C807.241 457.01 837.035 486.803 876.737 493.935C872.346 503.962 870.106 514.532 870.117 525.181C870.117 574.899 917.825 615.243 976.67 615.243C1035.51 615.243 1083.22 574.936 1083.22 525.181C1083.21 476.878 1038.09 437.444 981.478 435.312Z" fill="#BD4632"/>
<path d="M981.332 435.983C961.442 435.076 941.651 438.84 924.3 446.827" stroke="#3B1534" stroke-width="5" stroke-miterlimit="10" stroke-linecap="round"/>
<path d="M424.671 334.433H252.607V576.774H424.671V334.433Z" fill="#F2EADA"/>
<path d="M622.689 185.813H79.7093C59.2746 185.813 42.709 199.333 42.709 216.011V547.788C42.709 564.466 59.2746 577.987 79.7093 577.987H622.689C643.124 577.987 659.689 564.466 659.689 547.788V216.011C659.689 199.333 643.124 185.813 622.689 185.813Z" stroke="#77C8D6" stroke-width="5" stroke-miterlimit="10" stroke-linecap="round"/>
<path d="M417.318 285.423L310.416 267.254L297.14 319.27L404.707 334.792L417.318 285.423Z" fill="#BD4632"/>
<path d="M350.423 284.072L295.665 274.781C291.049 273.997 286.668 272.478 282.771 270.311C278.874 268.144 275.539 265.372 272.955 262.153C270.371 258.934 268.59 255.331 267.712 251.55C266.835 247.769 266.879 243.884 267.842 240.116L291.015 149.328C294.272 136.577 303.601 125.404 316.95 118.265C330.3 111.127 346.576 108.608 362.201 111.263L393.188 116.538L350.423 284.072Z" fill="#3B1534"/>
<path d="M437.406 326.916L301.34 306.946L336.877 145.854L509.876 171.274L480.982 302.232C479.209 310.219 473.623 317.305 465.453 321.933C457.282 326.562 447.195 328.354 437.406 326.916Z" fill="#BD4632"/>
<path d="M313.569 255.436C331.727 255.436 346.448 243.422 346.448 228.601C346.448 213.781 331.727 201.766 313.569 201.766C295.41 201.766 280.689 213.781 280.689 228.601C280.689 243.422 295.41 255.436 313.569 255.436Z" fill="#BD4632"/>
<path d="M529.693 125.701C521.677 125.464 513.718 126.883 506.554 129.827C504.863 124.13 501.037 119.005 495.609 115.167C490.181 111.328 483.421 108.967 476.271 108.411C469.121 107.856 461.937 109.135 455.719 112.069C449.502 115.003 444.56 119.447 441.583 124.782L380.779 114.443L362.043 111.355C354.375 110.089 346.404 111.329 339.845 114.809C333.286 118.289 328.662 123.731 326.968 129.965L326.912 130.195L308.896 200.958L322.036 203.182C334.89 205.356 348.275 203.278 359.253 197.404C370.231 191.53 377.905 182.34 380.588 171.853L381.095 169.895L419.998 176.512C422.633 189.433 440.367 201.325 463.912 204.808C480.385 207.234 495.98 204.955 506.587 199.469C512.961 202.072 519.967 203.478 527.093 203.582C534.219 203.686 541.283 202.486 547.766 200.07C554.25 197.654 559.987 194.084 564.558 189.621C569.13 185.158 572.418 179.916 574.182 174.281C575.946 168.645 576.141 162.758 574.752 157.053C573.363 151.347 570.427 145.968 566.157 141.311C561.888 136.653 556.395 132.835 550.081 130.137C543.767 127.439 536.793 125.929 529.67 125.719L529.693 125.701Z" fill="#3B1534"/>
<path d="M315.955 239.666C321.975 239.666 326.855 235.683 326.855 230.77C326.855 225.857 321.975 221.874 315.955 221.874C309.936 221.874 305.056 225.857 305.056 230.77C305.056 235.683 309.936 239.666 315.955 239.666Z" stroke="#3B1534" stroke-width="5" stroke-miterlimit="10" stroke-linecap="round"/>
<path d="M302.354 213.603C302.354 213.603 322.396 215.919 325.684 226.782" stroke="#3B1534" stroke-width="5" stroke-miterlimit="10" stroke-linecap="round"/>
<path d="M334.58 417.924C338.846 417.924 342.304 415.102 342.304 411.62C342.304 408.138 338.846 405.316 334.58 405.316C330.314 405.316 326.855 408.138 326.855 411.62C326.855 415.102 330.314 417.924 334.58 417.924Z" fill="#3B1534"/>
<path d="M202.477 334.433C135.976 334.433 82.0742 377.838 82.0742 431.379V576.774H252.607V334.433H202.477Z" fill="#77C8D6"/>
<path d="M583.64 431.379C583.64 377.838 529.738 334.433 463.236 334.433H424.671V576.774H583.64V431.379Z" fill="#77C8D6"/>
<path d="M297.14 319.27L293.413 333.863L400.316 352.032L404.707 334.792L297.14 319.27Z" fill="#F2EADA"/>
<path d="M405.124 333.183L397.602 363.29L357.066 355.662C356.315 348.99 355.535 342.321 354.724 335.656L339.039 352.032L291.308 341.17L295.913 324.104" stroke="#3B1534" stroke-width="5" stroke-miterlimit="10" stroke-linecap="round"/>
<path d="M182.908 337.429C182.908 337.429 176.996 399.489 217.217 439.438L204.459 455.273C201.108 459.431 199.268 464.28 199.153 469.256C199.037 474.233 200.65 479.135 203.806 483.394L252.652 549.709" stroke="#F2EADA" stroke-width="5" stroke-miterlimit="10" stroke-linecap="round"/>
<path d="M495.113 339.322C495.113 339.322 501.036 401.382 460.804 441.331L473.573 457.166C476.918 461.319 478.757 466.158 478.879 471.127C479 476.096 477.399 480.992 474.26 485.25L425.414 551.575" stroke="#F2EADA" stroke-width="5" stroke-miterlimit="10" stroke-linecap="round"/>
<path d="M433.319 482.521C449.12 482.521 461.93 472.066 461.93 459.169C461.93 446.272 449.12 435.817 433.319 435.817C417.517 435.817 404.707 446.272 404.707 459.169C404.707 472.066 417.517 482.521 433.319 482.521Z" fill="#FFB6DB"/>
<path d="M293.413 527.175C276.523 508.308 256.965 480.122 264.419 455.989C272.188 430.855 302.815 431.498 323.556 445.384C342.698 458.177 353.778 478.091 361.919 496.637" stroke="#3B1534" stroke-width="5" stroke-miterlimit="10" stroke-linecap="round"/>
<path d="M279.248 438.694C261.829 407.604 255.839 370.688 265.443 337.199C270.454 319.738 283.459 305.099 302.939 296.763" stroke="#3B1534" stroke-width="5" stroke-miterlimit="10" stroke-linecap="round"/>
<path d="M438.194 436.167C438.194 436.167 443.745 372.167 424.682 328.12" stroke="#3B1534" stroke-width="5" stroke-miterlimit="10" stroke-linecap="round"/>
<path d="M424.671 299.64C435.206 299.64 443.746 292.67 443.746 284.072C443.746 275.474 435.206 268.504 424.671 268.504C414.137 268.504 405.597 275.474 405.597 284.072C405.597 292.67 414.137 299.64 424.671 299.64Z" fill="#3B1534"/>
<path d="M407.837 322.569L341.403 312.809C341.106 312.766 340.799 312.815 340.544 312.946C340.288 313.077 340.101 313.281 340.02 313.519C339.938 313.756 339.968 314.01 340.103 314.23C340.238 314.451 340.469 314.622 340.75 314.712L404.729 334.792L407.837 322.569Z" fill="#3B1534"/>
<path d="M887.007 359.908L875.747 280.993C874.477 272.056 871.064 263.41 865.7 255.55C860.337 247.689 853.129 240.768 844.488 235.181C835.848 229.594 825.943 225.45 815.34 222.988C804.738 220.525 793.644 219.79 782.694 220.826L678.46 230.669C667.883 231.669 657.896 235.174 649.732 240.753C641.568 246.332 635.585 253.74 632.519 262.062C621.822 263.163 612.029 267.52 605.098 274.26C598.167 281.001 594.609 289.628 595.136 298.418L598.086 348.301C598.346 352.892 599.714 357.396 602.111 361.555C604.508 365.713 607.887 369.445 612.054 372.536C616.222 375.626 621.096 378.015 626.397 379.565C631.698 381.115 637.322 381.796 642.946 381.569L644.996 381.486L646.009 388.581C648.225 404.18 657.943 418.421 673.024 428.172C688.106 437.924 707.315 442.386 726.428 440.578L817.037 432.003C827.432 431.02 837.487 428.375 846.63 424.219C855.772 420.064 863.822 414.479 870.319 407.784C876.816 401.09 881.634 393.416 884.498 385.201C887.361 376.986 888.214 368.392 887.007 359.908Z" fill="#BD4632"/>
<path d="M805.968 444.539L691.837 452.681C685.824 453.11 679.766 452.568 674.01 451.087C668.253 449.605 662.911 447.212 658.287 444.045C653.663 440.879 649.849 436.999 647.063 432.63C644.276 428.26 642.571 423.485 642.045 418.577L630.56 311.403C630.157 307.646 630.664 303.861 632.054 300.264C633.443 296.667 635.687 293.329 638.658 290.44C641.629 287.551 645.268 285.168 649.367 283.427C653.467 281.687 657.946 280.622 662.55 280.295L787.434 271.39L805.968 444.539Z" fill="#F985BF"/>
<path d="M895.722 793.161H567.29C551.949 793.161 537.237 788.188 526.389 779.334C515.541 770.481 509.447 758.473 509.447 745.952V560.811C509.447 537.931 520.583 515.989 540.405 499.811C560.228 483.633 587.112 474.544 615.145 474.544H870.972C899.005 474.544 925.889 483.633 945.712 499.811C965.534 515.989 976.67 537.931 976.67 560.811V727.094C976.67 744.616 968.141 761.421 952.961 773.811C937.78 786.201 917.19 793.161 895.722 793.161Z" fill="#3B1534"/>
<path d="M813.727 386.688C831.207 386.688 845.378 375.122 845.378 360.855C845.378 346.587 831.207 335.021 813.727 335.021C796.246 335.021 782.075 346.587 782.075 360.855C782.075 375.122 796.246 386.688 813.727 386.688Z" fill="#F985BF"/>
<path d="M804.245 424.205L701.775 431.507L708.982 498.88L811.453 491.577L804.245 424.205Z" fill="#F985BF"/>
<path d="M703.987 425.249C712.786 425.249 719.919 418.925 719.919 411.124C719.919 403.323 712.786 396.999 703.987 396.999C695.187 396.999 688.054 403.323 688.054 411.124C688.054 418.925 695.187 425.249 703.987 425.249Z" fill="#3B1534"/>
<path d="M851.087 337.971L765.511 346.068C756.223 346.942 746.814 346.315 737.823 344.222C728.831 342.129 720.433 338.611 713.108 333.868C705.782 329.126 699.673 323.253 695.129 316.584C690.585 309.914 687.695 302.58 686.623 294.999L682.356 265.003L838.622 250.216L851.087 337.971Z" fill="#BD4632"/>
<path d="M704.021 452.148L749.297 445.338C749.77 445.262 750.261 445.326 750.681 445.52C751.101 445.714 751.421 446.024 751.585 446.394C751.748 446.764 751.744 447.17 751.572 447.538C751.4 447.906 751.072 448.211 750.648 448.399L705.788 468.69L704.021 452.148Z" fill="#3B1534"/>
<path d="M812.42 376.202C818.21 376.202 822.903 372.371 822.903 367.646C822.903 362.921 818.21 359.09 812.42 359.09C806.63 359.09 801.937 362.921 801.937 367.646C801.937 372.371 806.63 376.202 812.42 376.202Z" stroke="#3B1534" stroke-width="5" stroke-miterlimit="10" stroke-linecap="round"/>
<path d="M825.505 351.131C825.505 351.131 806.228 353.365 803.063 363.814" stroke="#3B1534" stroke-width="5" stroke-miterlimit="10" stroke-linecap="round"/>
<path d="M798.683 365.99L756.838 486.762C755.511 490.591 758.239 494.572 762.93 495.655L829.61 511.045C834.301 512.127 839.18 509.901 840.506 506.072L882.351 385.3C883.678 381.471 880.95 377.489 876.259 376.407L809.579 361.017C804.888 359.934 800.009 362.161 798.683 365.99Z" fill="#F2EADA"/>
<path d="M847.983 393.386L841.588 411.841C840.515 414.938 842.721 418.158 846.515 419.033L847.804 419.331C851.598 420.207 855.544 418.406 856.616 415.31L863.011 396.854C864.084 393.758 861.878 390.538 858.084 389.662L856.795 389.364C853.001 388.489 849.055 390.289 847.983 393.386Z" stroke="#77C8D6" stroke-width="5" stroke-miterlimit="10" stroke-linecap="round"/>
<path d="M1013.57 245.116C1016.94 239.211 1017.3 232.455 1014.57 226.333C1011.84 220.212 1006.24 215.226 999.009 212.473C991.773 209.723 983.495 209.431 975.996 211.661C968.496 213.891 962.388 218.461 959.014 224.365L942.124 253.855L996.679 274.606L1013.57 245.116Z" fill="#F2EADA"/>
<path d="M979.89 304.097L996.78 274.606L942.226 253.855L925.336 283.355C923.666 286.279 922.719 289.442 922.548 292.664C922.377 295.887 922.985 299.105 924.338 302.136C925.691 305.166 927.762 307.949 930.434 310.326C933.105 312.703 936.324 314.627 939.906 315.989C943.488 317.351 947.364 318.125 951.312 318.264C955.26 318.404 959.204 317.908 962.917 316.803C966.63 315.699 970.04 314.008 972.952 311.828C975.865 309.648 978.222 307.021 979.89 304.097Z" fill="#FFB6DB"/>
<path d="M332.316 745.088C351.918 745.088 367.808 732.12 367.808 716.122C367.808 700.124 351.918 687.155 332.316 687.155C312.715 687.155 296.825 700.124 296.825 716.122C296.825 732.12 312.715 745.088 332.316 745.088Z" fill="#F2EADA"/>
<path d="M347.112 693.183L317.521 739.06" stroke="#77C8D6" stroke-width="5" stroke-miterlimit="10" stroke-linecap="round"/>
<path d="M334.58 499.458C338.846 499.458 342.304 496.636 342.304 493.154C342.304 489.672 338.846 486.849 334.58 486.849C330.314 486.849 326.855 489.672 326.855 493.154C326.855 496.636 330.314 499.458 334.58 499.458Z" fill="#3B1534"/>
<path d="M361.919 522.479C370.663 522.479 377.751 516.694 377.751 509.558C377.751 502.422 370.663 496.637 361.919 496.637C353.175 496.637 346.087 502.422 346.087 509.558C346.087 516.694 353.175 522.479 361.919 522.479Z" fill="#FFB6DB"/>
<path d="M304.29 549.479C313.034 549.479 320.122 543.694 320.122 536.558C320.122 529.422 313.034 523.637 304.29 523.637C295.547 523.637 288.458 529.422 288.458 536.558C288.458 543.694 295.547 549.479 304.29 549.479Z" fill="#FFB6DB"/>
<path d="M200.597 562.851C197.57 556.822 191.734 552.021 184.371 549.503C177.008 546.985 168.722 546.957 161.333 549.424C157.676 550.646 154.35 552.444 151.544 554.716C148.738 556.987 146.509 559.688 144.982 562.663C143.455 565.638 142.662 568.829 142.647 572.054C142.632 575.28 143.395 578.476 144.894 581.461L159.993 611.576L215.696 592.957L200.597 562.851Z" fill="#F2EADA"/>
<path d="M159.993 611.576L175.104 641.683C176.601 644.669 178.803 647.385 181.586 649.677C184.369 651.969 187.677 653.791 191.322 655.039C194.968 656.287 198.879 656.936 202.832 656.951C206.785 656.965 210.703 656.344 214.362 655.123C218.021 653.902 221.35 652.104 224.157 649.833C226.965 647.562 229.197 644.861 230.727 641.886C232.256 638.911 233.052 635.719 233.07 632.492C233.087 629.266 232.326 626.068 230.83 623.082L215.73 592.966L159.993 611.576Z" fill="#77C8D6"/>
<path d="M574.237 437.245L520.79 465.747C506.51 473.362 502.498 488.983 511.828 500.638L567.721 570.456C577.051 582.11 596.191 585.385 610.471 577.77L663.918 549.269C678.198 541.654 682.211 526.032 672.88 514.377L616.988 444.56C607.657 432.905 588.517 429.63 574.237 437.245Z" fill="#77C8D6"/>
<path d="M584.034 436.295L512.589 474.388L505.101 465.014C504.569 464.351 504.203 463.608 504.023 462.829C503.843 462.049 503.853 461.249 504.053 460.473C504.253 459.697 504.638 458.961 505.187 458.307C505.736 457.652 506.437 457.093 507.252 456.66L566.299 425.166C567.112 424.732 568.022 424.433 568.977 424.286C569.931 424.139 570.912 424.148 571.863 424.311C572.814 424.474 573.716 424.788 574.517 425.236C575.319 425.684 576.004 426.257 576.534 426.921L584.034 436.295Z" fill="#F2EADA"/>
<path d="M621.126 449.75L515.966 505.828L560.865 561.913L666.025 505.834L621.126 449.75Z" fill="#F2EADA"/>
<path d="M512.668 455.548L522.036 467.247" stroke="#3B1534" stroke-width="5" stroke-miterlimit="10" stroke-linecap="round"/>
<path d="M525.268 448.821L534.636 460.529" stroke="#3B1534" stroke-width="5" stroke-miterlimit="10" stroke-linecap="round"/>
<path d="M537.868 442.103L547.236 453.811" stroke="#3B1534" stroke-width="5" stroke-miterlimit="10" stroke-linecap="round"/>
<path d="M550.468 435.385L559.836 447.093" stroke="#3B1534" stroke-width="5" stroke-miterlimit="10" stroke-linecap="round"/>
<path d="M563.067 428.668L572.436 440.376" stroke="#3B1534" stroke-width="5" stroke-miterlimit="10" stroke-linecap="round"/>
<path d="M505.574 599.96C502.861 568.484 500.068 506.966 495.057 476.814L494.81 475.325C494.449 473.166 494.562 470.464 495.936 468.561C500.755 462.128 508.704 470.326 511.317 473.818C516.013 480.075 519.635 486.828 522.081 493.889C524.243 500.239 524.806 507.316 529.896 512.719C531.084 514.219 532.895 515.319 534.997 515.816C543.475 517.314 552.573 506.957 556.852 502.344C565.522 493.016 570.826 482.503 575.882 471.649C575.882 471.649 582.041 458.434 591.646 459.629C591.646 459.629 596.251 460.061 597.445 462.937C599.471 457.984 600.924 450.806 605.135 446.809C612.049 440.265 622.329 446.625 623.241 453.315C623.084 452.13 626.383 450.227 627.385 449.832C631.945 447.994 636.393 450.466 638.645 453.719C640.418 456.452 641.563 459.427 642.023 462.496C642.316 464.187 643.532 476.989 641.685 477.338C641.685 477.338 653.508 475.086 651.684 493.567C650.603 500.253 648.867 506.857 646.493 513.317C640.649 529.215 628.826 542.899 620.043 557.723C610.54 573.768 608.074 591.588 600.395 608.167L505.574 599.96Z" fill="#F985BF"/>
<path d="M597.568 462.9C597.568 462.9 599.246 491.233 579.643 513.932" stroke="#3B1534" stroke-width="5" stroke-miterlimit="10" stroke-linecap="round"/>
<path d="M622.25 453.444C622.25 453.444 631.765 493.88 601.352 521.606" stroke="#3B1534" stroke-width="5" stroke-miterlimit="10" stroke-linecap="round"/>
<path d="M641.235 476.391C641.235 476.391 638.262 511.313 618.456 530.695" stroke="#3B1534" stroke-width="5" stroke-miterlimit="10" stroke-linecap="round"/>
<path d="M897.242 538.791C897.242 538.791 886.32 499.835 884.405 468.754C883.819 460.524 884.942 452.271 887.727 444.346C890.339 437.223 899.516 428.521 897.242 420.838C896.957 419.921 896.441 419.063 895.728 418.318C895.014 417.573 894.119 416.957 893.098 416.509C888.008 414.616 881.05 419.266 878.167 421.214C875.285 423.163 870.533 426.848 864.565 436.378C864.565 436.378 861.367 441.478 853.823 458.434C838.413 456.388 823.777 451.504 811.023 444.154C798.27 436.804 787.735 427.181 780.216 416.013C776.343 416.375 772.752 417.847 770.082 420.167C764.025 425.58 766.536 432.978 766.704 433.428C766.704 433.428 752.393 439.374 758.406 452.001C758.406 452.001 748.384 460.667 756.931 471.557L763.901 480.003C763.901 480.003 764.013 485.232 764.025 485.82C764.317 495.929 775.465 512.076 778.561 516.414C779.271 517.406 779.552 517.783 780.07 518.491C785.7 526.192 792.738 538.084 799.313 556.574L897.242 538.791Z" fill="#F985BF"/>
<path d="M766.716 433.465C766.716 433.465 781.68 464.187 810.923 465.069" stroke="#3B1534" stroke-width="5" stroke-miterlimit="10" stroke-linecap="round"/>
<path d="M758.417 452.038C758.417 452.038 771.929 482.742 805.709 483.339" stroke="#3B1534" stroke-width="5" stroke-miterlimit="10" stroke-linecap="round"/>
<path d="M763.912 480.04C768.546 485.375 774.528 489.838 781.455 493.126C788.381 496.414 796.092 498.451 804.065 499.1" stroke="#3B1534" stroke-width="5" stroke-miterlimit="10" stroke-linecap="round"/>
<path d="M513.017 806.928L498.739 805.09C478.601 802.441 460.578 793.371 448.632 779.877C436.687 766.383 431.798 749.568 435.041 733.132L459.25 610.464C459.809 607.628 461.047 604.91 462.893 602.465C464.739 600.019 467.158 597.895 470.01 596.213C472.863 594.531 476.094 593.324 479.518 592.661C482.942 591.998 486.493 591.893 489.968 592.351L603.187 607.229C610.196 608.153 616.47 611.308 620.631 616.004C624.792 620.699 626.5 626.55 625.38 632.272L601.171 754.931C599.567 763.069 596.013 770.87 590.715 777.888C585.416 784.906 578.475 791.003 570.289 795.831C562.103 800.66 552.832 804.125 543.005 806.029C533.178 807.933 522.988 808.238 513.017 806.928Z" fill="#3B1534"/>
<path d="M471.355 626.804L602.151 642.023" stroke="#FFACD2" stroke-width="5" stroke-miterlimit="10" stroke-linecap="round"/>
<path d="M923.68 804.86L910.483 807.13C891.861 810.342 872.437 807.385 856.486 798.909C840.535 790.433 829.362 777.133 825.425 761.934L777.255 575.855C776.646 573.502 776.61 571.075 777.15 568.712C777.69 566.349 778.795 564.095 780.402 562.08C782.009 560.065 784.087 558.329 786.516 556.969C788.946 555.61 791.68 554.654 794.562 554.157L904.302 535.235C910.122 534.233 916.191 535.158 921.176 537.807C926.161 540.455 929.654 544.611 930.887 549.36L979.057 735.439C982.992 750.638 979.369 766.491 968.984 779.51C958.599 792.528 942.303 801.647 923.68 804.86Z" fill="#3B1534"/>
<path d="M798.672 593.288L913.445 575.174" stroke="#FFACD2" stroke-width="5" stroke-miterlimit="10" stroke-linecap="round"/>
<path d="M572.729 793.161C603.063 766.906 605.484 733.123 612.139 699.331L624.975 634.294C624.975 634.294 629.164 615.969 600.687 606.871" stroke="#F2EADA" stroke-width="5" stroke-miterlimit="10" stroke-linecap="round"/>
<path d="M851.538 793.161C828.747 777.851 821.136 752.055 815.506 729.53C806.655 693.624 798.188 657.636 788.211 621.924C782.987 603.222 764.79 563.632 796.577 553.808" stroke="#F2EADA" stroke-width="5" stroke-miterlimit="10" stroke-linecap="round"/>
<path d="M885.25 347.538C875.701 348.128 866.522 350.804 858.676 355.285" stroke="#3B1534" stroke-width="5" stroke-miterlimit="10" stroke-linecap="round"/>
</svg>
