<svg width="1164" height="926" viewBox="0 0 1164 926" fill="none" xmlns="http://www.w3.org/2000/svg">
<path d="M691.172 456.592C630.562 475.029 582.373 489.928 548.78 499.716C537.075 502.852 526.42 508.064 517.619 514.958C511.197 520.119 505.982 526.149 502.22 532.765C496.261 543.37 493.947 555.043 495.515 566.592L516.188 727.66L698.936 733.012L994.336 728.438C930.393 626.177 866.466 523.931 802.555 421.7L691.172 456.592Z" fill="#FFB6DB"/>
<path d="M1125.59 692.898L1017.24 471.482C988.562 412.894 905.673 385.605 835.065 411.514L802.555 421.7L968.448 687.092C976.218 699.522 988.174 709.991 1002.98 717.332C1017.79 724.673 1034.88 728.598 1052.33 728.669L1095.72 728.836C1118.05 728.836 1133.48 708.955 1125.59 692.898Z" fill="#FFB6DB"/>
<path d="M716.407 382.281L709.912 383.994L651.526 244.001L709.144 228.787L750.571 328.119C752.798 333.46 753.682 339.097 753.171 344.71C752.659 350.322 750.763 355.8 747.591 360.829C744.418 365.859 740.032 370.342 734.681 374.022C729.331 377.703 723.121 380.509 716.407 382.281Z" fill="#3B1534"/>
<path d="M443.181 332.499H64.3224C48.5531 332.499 35.7695 342.669 35.7695 355.214V585.167C35.7695 597.712 48.5531 607.882 64.3224 607.882H443.181C458.95 607.882 471.734 597.712 471.734 585.167V355.214C471.734 342.669 458.95 332.499 443.181 332.499Z" stroke="#77C8D6" stroke-width="5" stroke-miterlimit="10" stroke-linecap="round"/>
<path d="M317.435 378.771H111.034C100.78 378.771 92.4683 385.384 92.4683 393.541V512.356C92.4683 520.513 100.78 527.126 111.034 527.126H317.435C327.688 527.126 336 520.513 336 512.356V393.541C336 385.384 327.688 378.771 317.435 378.771Z" fill="#77C8D6"/>
<path d="M471.734 421.895H368.476C366.056 421.895 363.734 421.13 362.023 419.768C360.312 418.407 359.35 416.56 359.35 414.635V332.499H442.704C450.401 332.499 457.784 334.931 463.227 339.26C468.671 343.589 471.731 349.461 471.734 355.584V421.895Z" fill="#3B1534"/>
<path d="M361.061 452.194H455.066" stroke="#3B1534" stroke-width="5" stroke-miterlimit="10" stroke-linecap="round"/>
<path d="M361.061 473.056H455.066" stroke="#3B1534" stroke-width="5" stroke-miterlimit="10" stroke-linecap="round"/>
<path d="M361.061 493.91H426.024" stroke="#3B1534" stroke-width="5" stroke-miterlimit="10" stroke-linecap="round"/>
<path d="M115.178 584.584C127.546 584.584 137.573 576.607 137.573 566.768C137.573 556.928 127.546 548.951 115.178 548.951C102.809 548.951 92.7822 556.928 92.7822 566.768C92.7822 576.607 102.809 584.584 115.178 584.584Z" fill="#FFB6DB"/>
<path d="M259.549 584.584C271.917 584.584 281.944 576.607 281.944 566.768C281.944 556.928 271.917 548.951 259.549 548.951C247.18 548.951 237.153 556.928 237.153 566.768C237.153 576.607 247.18 584.584 259.549 584.584Z" fill="#FFB6DB"/>
<path d="M403.92 584.584C416.288 584.584 426.315 576.607 426.315 566.768C426.315 556.928 416.288 548.951 403.92 548.951C391.551 548.951 381.524 556.928 381.524 566.768C381.524 576.607 391.551 584.584 403.92 584.584Z" fill="#FFB6DB"/>
<path d="M415.536 390.855C426.78 390.855 435.894 383.604 435.894 374.66C435.894 365.715 426.78 358.464 415.536 358.464C404.292 358.464 395.178 365.715 395.178 374.66C395.178 383.604 404.292 390.855 415.536 390.855Z" fill="#FFB6DB"/>
<path d="M444.485 421.895H386.599V406.996C386.599 401.579 389.303 396.385 394.116 392.554C398.929 388.724 405.457 386.57 412.265 386.568H418.807C425.617 386.568 432.148 388.72 436.964 392.551C441.779 396.382 444.485 401.578 444.485 406.996V421.895Z" fill="#FFB6DB"/>
<path d="M722.32 393.957L571.524 436.887C566.233 438.395 560.622 439.059 555.008 438.841C549.395 438.623 543.891 437.527 538.811 435.616C533.73 433.706 529.173 431.017 525.399 427.705C521.625 424.392 518.708 420.521 516.816 416.311L450.258 268.364L641.364 213.962L722.32 393.957Z" fill="#BD4632"/>
<path d="M659.988 156.309C650.678 156.301 641.463 157.796 632.9 160.702C624.337 163.608 616.604 167.866 610.169 173.218C590.966 166.427 569.395 165.151 549.14 169.606C518.702 176.088 496.108 193.497 487.716 213.999C476.315 212.093 464.472 212.771 453.532 215.956C442.592 219.141 432.995 224.704 425.833 232.013C418.671 239.322 414.231 248.083 413.018 257.3C411.806 266.517 413.869 275.82 418.974 284.15C424.078 292.48 432.019 299.504 441.893 304.421C451.767 309.339 463.178 311.953 474.827 311.967C486.476 311.981 497.897 309.393 507.789 304.499C517.681 299.605 525.648 292.6 530.784 284.282C548.938 289.902 568.851 290.851 587.719 286.995C606.587 283.14 623.46 274.674 635.963 262.789C645.442 265.597 655.58 266.714 665.661 266.063C675.742 265.412 685.52 263.008 694.306 259.021C703.091 255.034 710.669 249.562 716.505 242.99C722.34 236.418 726.291 228.907 728.078 220.987C729.864 213.067 729.444 204.932 726.846 197.156C724.248 189.38 719.535 182.152 713.041 175.984C706.547 169.815 698.43 164.856 689.263 161.456C680.096 158.056 670.102 156.299 659.988 156.309Z" fill="#3B1534"/>
<path d="M712.95 287.338L667.054 302.478C660.382 304.677 652.886 304.678 646.213 302.482C639.541 300.285 634.238 296.07 631.47 290.764L613.684 256.641L684.688 233.204L712.95 287.338Z" fill="#3B1534"/>
<path d="M711.286 371.937L600.857 405.912L622.251 449.916L731.05 412.616L711.286 371.937Z" fill="#BD4632"/>
<path d="M569.091 392.152C569.534 392.346 579.253 396.393 588.6 391.948C596.748 388.05 597.912 380.901 597.97 380.114" stroke="#3B1534" stroke-width="5" stroke-miterlimit="10" stroke-linecap="round"/>
<path d="M610.518 425.784L658.673 412.07C659.318 411.884 660.025 411.886 660.668 412.077C661.311 412.268 661.847 412.635 662.181 413.113C662.514 413.59 662.623 414.146 662.488 414.681C662.353 415.216 661.982 415.696 661.443 416.033L618.899 443.008L610.518 425.784Z" fill="#3B1534"/>
<path d="M622.251 449.916L637.686 481.65L748.103 447.675L731.05 412.616L622.251 449.916Z" fill="#77C8D6"/>
<path d="M453.134 641.561H210.265C205.727 641.561 201.375 642.995 198.166 645.548C194.957 648.1 193.154 651.563 193.154 655.173V690.796H453.134V641.561Z" fill="#77C8D6"/>
<path d="M193.154 690.796V726.354C193.154 729.965 194.957 733.427 198.166 735.98C201.375 738.533 205.727 739.967 210.265 739.967H453.134V690.796H193.154Z" fill="#FFB6DB"/>
<path d="M453.133 727.003H229.191C225.759 727.003 222.467 725.921 220.035 723.995C217.602 722.069 216.228 719.454 216.213 716.724V714.094C216.211 712.737 216.546 711.394 217.197 710.14C217.849 708.886 218.805 707.747 220.01 706.787C221.215 705.828 222.647 705.066 224.222 704.547C225.798 704.027 227.486 703.76 229.191 703.76H453.133V727.003Z" stroke="#BD4632" stroke-width="5" stroke-miterlimit="10"/>
<path d="M242.426 641.561H226.596V690.759H242.426V641.561Z" fill="#F2EADA"/>
<path d="M279.826 641.561H263.995V690.759H279.826V641.561Z" fill="#F2EADA"/>
<path d="M652.597 715.363C632.66 715.397 613.158 710.722 596.564 701.931C579.97 693.139 567.03 680.627 559.383 665.979L559.069 665.359C548.317 644.345 542.148 622.026 540.829 599.363C540.707 597.365 539.623 595.482 537.803 594.103C535.983 592.724 533.565 591.955 531.052 591.955H344.544C343.241 591.955 341.95 592.161 340.749 592.563C339.547 592.965 338.459 593.553 337.547 594.294C336.635 595.035 335.918 595.914 335.439 596.878C334.959 597.842 334.727 598.872 334.755 599.909C335.441 627.235 342.903 711.39 408.087 734.614C415.913 737.386 424.221 739.203 432.729 740.004H814.532C814.532 733.478 811.274 727.22 805.474 722.606C799.674 717.992 791.807 715.4 783.605 715.4L652.597 715.363Z" fill="#F2EADA"/>
<path d="M1084.65 686.583C1100.14 686.572 1115.26 690.383 1127.92 697.491C1127.18 692.725 1124.9 688.192 1121.31 684.334C1117.71 680.476 1112.92 677.426 1107.41 675.48L845.46 584.436L784.641 694.861L979.168 762.459C990.555 766.436 1002.72 768.82 1015.12 769.506C1010.37 760.403 1008.52 750.508 1009.72 740.697C1010.93 730.887 1015.15 721.465 1022.03 713.265C1028.9 705.065 1038.22 698.341 1049.14 693.688C1060.06 689.036 1072.26 686.598 1084.65 686.592V686.583Z" fill="#FFB6DB"/>
<path d="M879.926 546.266L921.748 610.956" stroke="#3B1534" stroke-width="5" stroke-miterlimit="10" stroke-linecap="round"/>
<path d="M688.739 348.75C709.336 348.75 726.033 335.467 726.033 319.081C726.033 302.695 709.336 289.412 688.739 289.412C668.142 289.412 651.444 302.695 651.444 319.081C651.444 335.467 668.142 348.75 688.739 348.75Z" fill="#BD4632"/>
<path d="M683.769 329.563C689.535 329.563 694.21 325.845 694.21 321.257C694.21 316.67 689.535 312.951 683.769 312.951C678.002 312.951 673.328 316.67 673.328 321.257C673.328 325.845 678.002 329.563 683.769 329.563Z" stroke="#3B1534" stroke-width="5" stroke-miterlimit="10" stroke-linecap="round"/>
<path d="M696.072 306.395C696.072 306.395 676.866 308.562 673.711 318.701" stroke="#3B1534" stroke-width="5" stroke-miterlimit="10" stroke-linecap="round"/>
<path d="M709.528 456.657L671.069 435.692" stroke="#3B1534" stroke-width="5" stroke-miterlimit="10" stroke-linecap="round"/>
<path d="M661.094 471.964L670.825 435.692" stroke="#3B1534" stroke-width="5" stroke-miterlimit="10" stroke-linecap="round"/>
<path d="M790.193 584.899L750.931 556.526C740.038 548.644 726.744 543.163 712.368 540.627L704.848 539.302C695.592 537.664 686.049 537.32 676.645 538.284L630.702 542.979C625.56 543.469 620.825 545.447 617.397 548.535C613.835 551.813 611.856 556.295 619.271 560.684C623.237 562.976 627.978 564.267 632.878 564.388L724.485 567.592L790.193 584.899Z" fill="#BD4632"/>
<path d="M569.953 642.348L600.124 633.791L586.086 619.818L568.719 641.218C568.242 641.783 569.196 642.579 569.953 642.348Z" fill="#F2EADA"/>
<path d="M778.029 521.125C780.33 519.692 781.828 517.595 782.197 515.289C782.566 512.983 781.776 510.654 779.999 508.809C778.222 506.963 775.601 505.75 772.707 505.433C769.812 505.116 766.876 505.72 764.538 507.115L746.962 517.819L760.511 531.839L778.029 521.125Z" fill="#F2EADA"/>
<path d="M747.335 517.643L716.803 536.987L594.862 614.253L586.109 619.8L599.798 633.93L605.978 630.013L734.216 548.766L760.511 531.839L747.335 517.643Z" fill="#F2EADA"/>
<path d="M759.906 530.107L748.021 519.467" stroke="#3B1534" stroke-width="5" stroke-miterlimit="10" stroke-linecap="round"/>
<path d="M598.738 632.236C598.287 629.731 596.919 627.387 594.806 625.495C592.693 623.603 589.928 622.247 586.854 621.596" stroke="#3B1534" stroke-width="5" stroke-miterlimit="10" stroke-linecap="round"/>
<path d="M790.193 584.899L746.124 653.423L687.761 658.053C681.094 658.618 674.359 657.732 668.276 655.488C661.385 652.886 654.308 648.08 653.633 639.403C652.469 639.292 641.9 638.134 636.173 630.328C634.491 627.958 633.462 625.33 633.153 622.62C632.844 619.909 633.262 617.177 634.38 614.605C634.043 614.447 626.546 610.743 626.593 604.243C626.693 601.735 627.844 599.326 629.864 597.4L611.1 603.178C607.434 604.349 603.352 604.395 599.646 603.308C598.123 602.877 596.732 602.195 595.564 601.306C594.397 600.417 593.479 599.341 592.872 598.15C591.822 595.969 591.756 593.567 592.683 591.351C593.611 589.136 595.475 587.245 597.959 586.001C600.634 584.642 603.432 583.441 606.328 582.408C614.041 579.66 621.314 576.187 627.99 572.064C630.248 570.687 632.379 569.183 634.368 567.564C636.719 565.535 639.433 563.794 642.423 562.397C653.536 557.451 666.19 555.126 678.903 555.693L718.304 555.406L790.193 584.899Z" fill="#BD4632"/>
<path d="M673.211 605.863L634.368 614.605" stroke="#3B1534" stroke-width="5" stroke-miterlimit="10" stroke-linecap="round"/>
<path d="M670.208 581.028C655.518 584.29 641.797 589.856 629.852 597.4" stroke="#3B1534" stroke-width="5" stroke-miterlimit="10" stroke-linecap="round"/>
<path d="M685.188 630.236L653.632 639.375" stroke="#3B1534" stroke-width="5" stroke-miterlimit="10" stroke-linecap="round"/>
<path d="M639.129 564.138C644.382 561.432 650.076 559.314 656.053 557.841C669.439 554.563 678.169 556.137 713.567 555.507L718.316 555.406" stroke="#3B1534" stroke-width="5" stroke-miterlimit="10" stroke-linecap="round"/>
<path d="M1123.66 715.483L1125.46 712.048C1127.88 707.454 1128.73 702.431 1127.92 697.491C1114.57 690.038 1098.54 686.235 1082.24 686.653C1065.94 687.07 1050.25 691.687 1037.53 699.807C1024.81 707.928 1015.75 719.114 1011.71 731.683C1007.67 744.252 1008.87 757.525 1015.12 769.506C1060.4 771.96 1104.76 751.31 1123.66 715.483Z" fill="#F2EADA"/>
<path d="M817.628 574.768C813.598 573.38 809.26 572.646 804.869 572.609C800.477 572.572 796.121 573.232 792.054 574.552C787.988 575.871 784.294 577.823 781.188 580.293C778.082 582.763 775.627 585.702 773.967 588.936L741.526 650.469C738.029 657.021 737.899 664.403 741.163 671.031C744.427 677.659 750.825 683.006 758.986 685.925L784.594 694.833L845.413 584.408L817.628 574.768Z" fill="#77C8D6"/>
<path d="M813.054 639.875L759.475 619.383" stroke="#3B1534" stroke-width="5" stroke-miterlimit="10" stroke-linecap="round"/>
<path d="M828.291 610.956L774.724 590.464" stroke="#3B1534" stroke-width="5" stroke-miterlimit="10" stroke-linecap="round"/>
<path d="M744.424 647.07L796.083 666.859" stroke="#3B1534" stroke-width="5" stroke-miterlimit="10" stroke-linecap="round"/>
<path d="M978.144 630.55L821.004 575.916C813.404 572.46 804.405 571.506 795.932 573.259C788.789 574.864 782.535 578.339 778.181 583.121" stroke="#3B1534" stroke-width="5" stroke-miterlimit="10" stroke-linecap="round"/>
<path d="M882.417 728.836L784.641 694.861" stroke="#3B1534" stroke-width="5" stroke-miterlimit="10" stroke-linecap="round"/>
</svg>
