<svg width="1000" height="1000" viewBox="0 0 1000 1000" fill="none" xmlns="http://www.w3.org/2000/svg">
<path d="M357.68 498.03H101.98V307.14L357.68 366.93V498.03Z" fill="#3B1534"/>
<path d="M357.68 242.33H101.98V498.03H357.68V242.33Z" stroke="#77C8D6" stroke-width="5" stroke-miterlimit="10" stroke-linecap="round"/>
<path d="M302.07 330.12L194.91 305.91L224.39 175.45L366.77 207.62L345.25 302.86C343.138 312.201 337.403 320.32 329.305 325.432C321.208 330.544 311.411 332.231 302.07 330.12Z" fill="#F985BF"/>
<path d="M278.59 348.22L287.5 313.63L198.74 290.79L190.83 321.55L231.54 351.91L278.59 348.22Z" fill="#F985BF"/>
<path d="M218.28 422.68C221.213 422.68 223.59 420.303 223.59 417.37C223.59 414.437 221.213 412.06 218.28 412.06C215.347 412.06 212.97 414.437 212.97 417.37C212.97 420.303 215.347 422.68 218.28 422.68Z" fill="#F2EADA"/>
<path d="M284.28 326.1L240.79 316.27C240.298 316.159 239.782 316.217 239.327 316.436C238.872 316.654 238.504 317.02 238.283 317.474C238.062 317.928 238.001 318.443 238.109 318.936C238.217 319.429 238.489 319.871 238.88 320.19L277.64 351.91L284.28 326.1Z" fill="#3B1534"/>
<path d="M205.99 266.16C219.151 266.16 229.82 255.491 229.82 242.33C229.82 229.169 219.151 218.5 205.99 218.5C192.829 218.5 182.16 229.169 182.16 242.33C182.16 255.491 192.829 266.16 205.99 266.16Z" fill="#F985BF"/>
<path d="M200 221.66L214.42 165.66L268.55 179.59L268.06 181.48C266.23 188.588 263.018 195.265 258.607 201.131C254.196 206.997 248.673 211.937 242.353 215.668C236.033 219.399 229.039 221.849 221.772 222.877C214.506 223.905 207.107 223.492 200 221.66Z" fill="#BD4632"/>
<path d="M413.64 227.15L210.34 181.22L214.57 164.85L417.41 210.49C418.363 210.707 419.191 211.293 419.712 212.12C420.233 212.947 420.405 213.947 420.19 214.9L418.05 224.37C417.944 224.842 417.745 225.289 417.466 225.685C417.187 226.081 416.832 226.417 416.422 226.675C416.013 226.934 415.556 227.109 415.078 227.19C414.601 227.271 414.112 227.258 413.64 227.15Z" fill="#77C8D6"/>
<path d="M373 201L214.57 164.85C217.982 151.498 226.362 139.952 238 132.57C255.9 121.39 274 124.99 277.5 125.77L333.5 138.42C336.91 139.19 354.93 143.61 366.25 161.54C377.57 179.47 373.77 197.64 373 201Z" fill="#77C8D6"/>
<path d="M265.63 176.79C265.63 176.79 278.63 134.65 302.77 133.49" stroke="#3B1534" stroke-width="5" stroke-miterlimit="10" stroke-linecap="round"/>
<path d="M328.16 180.49C336.107 180.49 342.55 174.047 342.55 166.1C342.55 158.153 336.107 151.71 328.16 151.71C320.213 151.71 313.77 158.153 313.77 166.1C313.77 174.047 320.213 180.49 328.16 180.49Z" fill="#F2EADA"/>
<path d="M411.549 319.69C412.095 317.272 408.743 314.453 404.062 313.396C399.38 312.338 395.142 313.442 394.596 315.861C394.049 318.279 397.401 321.098 402.083 322.155C406.764 323.213 411.002 322.109 411.549 319.69Z" fill="#3B1534"/>
<path d="M384.32 310.92L404.06 315.99" stroke="#3B1534" stroke-width="5" stroke-miterlimit="10" stroke-linecap="round"/>
<path d="M233.75 342.34L188.75 315.25C186.457 313.873 183.722 313.434 181.114 314.025C178.506 314.615 176.226 316.19 174.75 318.42L159.25 341.86L303.1 378.07L297.73 348.7C297.279 346.24 295.956 344.026 294.003 342.465C292.05 340.903 289.599 340.099 287.1 340.2L233.75 342.34Z" fill="#3B1534"/>
<path d="M299 355.55L303.15 378.07L235.47 385.13L231.56 356.21L215.16 382.92L159.3 341.86L171.51 326" stroke="#F2EADA" stroke-width="5" stroke-miterlimit="10" stroke-linecap="round"/>
<path d="M209.1 250.13C212.778 250.13 215.76 247.148 215.76 243.47C215.76 239.792 212.778 236.81 209.1 236.81C205.422 236.81 202.44 239.792 202.44 243.47C202.44 247.148 205.422 250.13 209.1 250.13Z" stroke="#3B1534" stroke-width="5" stroke-miterlimit="10" stroke-linecap="round"/>
<path d="M200.79 230.61C200.79 230.61 213.04 232.35 215.05 240.48" stroke="#3B1534" stroke-width="5" stroke-miterlimit="10" stroke-linecap="round"/>
<path d="M942.46 642.42C946.396 635.936 948.537 628.523 948.662 620.939C948.788 613.355 946.894 605.874 943.175 599.264C939.456 592.654 934.046 587.151 927.499 583.321C920.952 579.492 913.505 577.472 905.92 577.47C905.09 577.47 904.27 577.47 903.45 577.55V474H822.9V727.31L872.64 736.73C881.64 737.51 895.05 738.87 911.41 741.32C923.46 743.13 923.57 743.5 926.29 743.5C938.621 743.505 950.549 739.114 959.933 731.115C969.318 723.116 975.542 712.033 977.49 699.857C979.438 687.681 976.981 675.21 970.561 664.683C964.14 654.155 954.177 646.262 942.46 642.42Z" fill="#3B1534"/>
<path d="M903.45 494.14H694.85V343.68C694.85 333.742 698.798 324.212 705.825 317.185C712.852 310.158 722.382 306.21 732.32 306.21H820C842.146 306.21 863.384 315.007 879.044 330.667C894.703 346.326 903.5 367.564 903.5 389.71L903.45 494.14Z" fill="#3B1534"/>
<path d="M832.77 487.61H746.39V524.14H832.77V487.61Z" fill="#F985BF"/>
<path d="M832.77 524.14H746.39V546.62H832.77V524.14Z" fill="#77C8D6"/>
<path d="M832.77 507.34H703.93C696.769 507.34 689.902 504.495 684.838 499.432C679.775 494.368 676.93 487.501 676.93 480.34L694.49 348C695.112 343.304 697.481 339.015 701.125 335.989C704.769 332.962 709.42 331.42 714.15 331.67L832.77 337.92V507.34Z" fill="#F985BF"/>
<path d="M832.77 461.86C847.234 461.86 858.96 450.134 858.96 435.67C858.96 421.206 847.234 409.48 832.77 409.48C818.306 409.48 806.58 421.206 806.58 435.67C806.58 450.134 818.306 461.86 832.77 461.86Z" fill="#F985BF"/>
<path d="M831.83 446.39C836.005 446.39 839.39 443.005 839.39 438.83C839.39 434.655 836.005 431.27 831.83 431.27C827.655 431.27 824.27 434.655 824.27 438.83C824.27 443.005 827.655 446.39 831.83 446.39Z" stroke="#3B1534" stroke-width="5" stroke-miterlimit="10" stroke-linecap="round"/>
<path d="M841.27 424.24C841.27 424.24 827.36 426.24 825.08 435.44" stroke="#3B1534" stroke-width="5" stroke-miterlimit="10" stroke-linecap="round"/>
<path d="M746.39 507.34V522.45L791.18 510.31C791.578 510.258 791.939 510.051 792.184 509.733C792.428 509.415 792.537 509.013 792.485 508.615C792.433 508.217 792.226 507.856 791.908 507.611C791.59 507.367 791.188 507.258 790.79 507.31L746.39 507.34Z" fill="#3B1534"/>
<path d="M831.56 738.63H655.66V652.43C655.66 622.612 667.505 594.015 688.59 572.93C709.675 551.845 738.272 540 768.09 540H831.56V738.63Z" fill="#77C8D6"/>
<path d="M709.73 329C722.53 331.29 728.08 349.12 730.81 359.77C735.06 376.35 739.14 391.77 752.2 403.77C775 424.77 812.37 424.14 837.87 408.18C841.895 405.681 845.568 402.654 848.79 399.18L851.25 334.33L709.73 329Z" fill="#3B1534"/>
<path d="M623.14 483.74C627.939 483.74 631.83 481.73 631.83 479.25C631.83 476.77 627.939 474.76 623.14 474.76C618.341 474.76 614.45 476.77 614.45 479.25C614.45 481.73 618.341 483.74 623.14 483.74Z" fill="#3B1534"/>
<path d="M712.94 787.81H473.14C469.351 787.81 466.28 790.881 466.28 794.67V802.18C466.28 805.969 469.351 809.04 473.14 809.04H712.94C716.729 809.04 719.8 805.969 719.8 802.18V794.67C719.8 790.881 716.729 787.81 712.94 787.81Z" fill="#F2EADA"/>
<path d="M562.52 716.55C562.52 716.55 596.81 751.3 633.01 716.55C633.01 716.55 665.64 742.21 698.3 727.8V699.9C698.3 691.413 694.928 683.274 688.927 677.273C682.926 671.271 674.787 667.9 666.3 667.9H526.38C517.893 667.9 509.754 671.271 503.752 677.273C497.751 683.274 494.38 691.413 494.38 699.9V722.08C507.74 730.58 536.55 743.21 562.52 716.55Z" fill="#3B1534"/>
<path d="M633 716.55C596.8 751.3 562.51 716.55 562.51 716.55C536.51 743.21 507.73 730.55 494.36 722.08V787.81H698.3V727.81C665.64 742.21 633 716.55 633 716.55Z" fill="#FFB6DB"/>
<path d="M543.57 667.89C551.092 667.89 557.19 661.792 557.19 654.27C557.19 646.748 551.092 640.65 543.57 640.65C536.048 640.65 529.95 646.748 529.95 654.27C529.95 661.792 536.048 667.89 543.57 667.89Z" fill="#F985BF"/>
<path d="M599.15 667.89C606.672 667.89 612.77 661.792 612.77 654.27C612.77 646.748 606.672 640.65 599.15 640.65C591.628 640.65 585.53 646.748 585.53 654.27C585.53 661.792 591.628 667.89 599.15 667.89Z" fill="#F985BF"/>
<path d="M652.15 667.89C659.672 667.89 665.77 661.792 665.77 654.27C665.77 646.748 659.672 640.65 652.15 640.65C644.628 640.65 638.53 646.748 638.53 654.27C638.53 661.792 644.628 667.89 652.15 667.89Z" fill="#F985BF"/>
<path d="M642.96 476.68L622.59 477.27" stroke="#3B1534" stroke-width="5" stroke-miterlimit="10" stroke-linecap="round"/>
<path d="M664 731.16C663.77 729.52 637.91 730.42 636.2 730.49C616.2 731.24 595.89 734.35 577.05 741.49C538.05 756.18 502.78 792.72 499.44 835.43C499.207 837.817 499.579 840.224 500.52 842.43C501.92 845.56 504.83 848.55 510.7 844.92C510.7 844.92 517.32 860.29 529.5 846.58C529.5 846.58 535.62 859.92 546.44 851.19C548.666 849.369 550.488 847.105 551.79 844.54C555.79 836.75 569.5 812.77 589 802.38C589 802.38 572 817.31 568 829.76C565.56 837.39 574.49 843.76 581 839C584.68 836.156 587.904 832.767 590.56 828.95C590.56 828.95 604.63 808.28 632.77 813.32C632.77 813.32 661.89 817.75 673.69 800.4L664 731.16Z" fill="#F985BF"/>
<path d="M538.82 787.32C538.82 787.32 513.06 809.61 510.66 844.9" stroke="#3B1534" stroke-width="5" stroke-miterlimit="10" stroke-linecap="round"/>
<path d="M529.46 846.56C529.46 846.56 532.2 810.88 558.55 794" stroke="#3B1534" stroke-width="5" stroke-miterlimit="10" stroke-linecap="round"/>
<path d="M835.62 259.78L769.83 306.94L802.22 310.1L843.56 280.46L835.62 259.78Z" fill="#77C8D6"/>
<path d="M847.73 291.32L819.22 311.76L857 315.45L847.73 291.32Z" fill="#77C8D6"/>
<path d="M824.8 231.61L773.65 268.28L750.53 305.06L752.82 305.28L831.45 248.91L824.8 231.61Z" fill="#77C8D6"/>
<path d="M814.15 203.87L789.51 243.06L820.63 220.75L814.15 203.87Z" fill="#77C8D6"/>
<path d="M820.63 220.75L789.51 243.06L773.65 268.28L824.8 231.61L820.63 220.75Z" fill="#F2EADA"/>
<path d="M831.45 248.91L752.82 305.28L769.83 306.94L835.62 259.78L831.45 248.91Z" fill="#F2EADA"/>
<path d="M843.56 280.46L802.22 310.1L819.22 311.76L847.73 291.32L843.56 280.46Z" fill="#F2EADA"/>
<path d="M844.92 191.4C845.11 184.11 839.77 178.07 833.01 177.9C831.857 177.873 830.708 178.021 829.6 178.34C828.779 176.017 827.259 174.006 825.247 172.583C823.236 171.161 820.833 170.397 818.37 170.397C815.906 170.397 813.503 171.161 811.492 172.583C809.481 174.006 807.96 176.017 807.14 178.34C805.61 177.55 803.921 177.12 802.2 177.08C795.44 176.91 789.8 182.67 789.62 189.96C789.532 192.934 790.409 195.856 792.12 198.29C789.741 200.777 788.384 204.069 788.32 207.51C788.14 214.79 793.47 220.84 800.24 221.01C800.826 221.053 801.414 221.05 802 221C802.705 223.377 804.134 225.475 806.087 227.002C808.041 228.529 810.422 229.408 812.899 229.518C815.376 229.628 817.825 228.963 819.906 227.616C821.988 226.268 823.597 224.305 824.51 222C826.089 222.843 827.841 223.308 829.63 223.36C836.39 223.52 842.02 217.76 842.21 210.47C842.297 207.408 841.365 204.404 839.56 201.93C841.193 200.696 842.524 199.107 843.453 197.283C844.382 195.458 844.883 193.447 844.92 191.4Z" fill="#FFB6DB"/>
<path d="M807.56 190.7C806.498 192.235 805.935 194.061 805.949 195.928C805.963 197.795 806.553 199.612 807.638 201.132C808.723 202.651 810.251 203.798 812.012 204.417C813.773 205.036 815.683 205.097 817.48 204.59C818.067 205.941 818.96 207.137 820.088 208.085C821.216 209.032 822.548 209.705 823.98 210.05C825.659 210.371 827.395 210.211 828.988 209.588C830.58 208.966 831.964 207.905 832.98 206.53" stroke="#F685B0" stroke-width="5" stroke-miterlimit="10" stroke-linecap="round"/>
<path d="M890.12 724.05V594.34C890.121 587.058 888.688 579.847 885.902 573.119C883.116 566.391 879.031 560.277 873.882 555.128C868.733 549.979 862.619 545.894 855.891 543.108C849.163 540.322 841.952 538.889 834.67 538.89C827.389 538.89 820.179 540.324 813.452 543.111C806.725 545.898 800.613 549.982 795.464 555.132C790.316 560.281 786.233 566.394 783.447 573.121C780.662 579.848 779.229 587.059 779.23 594.34V724.91H890.1C890.1 724.62 890.12 724.34 890.12 724.05Z" fill="#F985BF"/>
<path d="M822.9 724.91H779.23L664 731.16L673.69 800.38C688.86 803.38 721.2 809.04 756.53 809.81C773.79 810.19 789.44 809.34 796.22 808.89H805.32C827.674 808.888 849.123 800.064 865.006 784.335C880.889 768.605 889.921 747.242 890.14 724.89L822.9 724.91Z" fill="#F985BF"/>
<path d="M777.23 526.14V542" stroke="#3B1534" stroke-width="5" stroke-miterlimit="10" stroke-linecap="round"/>
<path d="M799.06 526.14V542" stroke="#3B1534" stroke-width="5" stroke-miterlimit="10" stroke-linecap="round"/>
<path d="M779.23 724.91H802.73" stroke="#3B1534" stroke-width="5" stroke-miterlimit="10" stroke-linecap="round"/>
<path d="M283.06 713.78L125.77 722.09L229.83 792.35L283.06 713.78Z" fill="#BD4632"/>
<path d="M306.8 712.53L283.06 713.78L229.83 792.35L125.77 722.09L102 723.35V846.35H355.33V761.06C355.33 748.189 350.217 735.845 341.116 726.744C332.015 717.643 319.671 712.53 306.8 712.53Z" fill="#FFB6DB"/>
<path d="M229.83 792.35L257.7 810.84" stroke="#3B1534" stroke-width="5" stroke-miterlimit="10" stroke-linecap="round"/>
<path d="M357.68 590.7H101.98V846.4H357.68V590.7Z" stroke="#77C8D6" stroke-width="5" stroke-miterlimit="10" stroke-linecap="round"/>
<path d="M213 680.06C194.059 680.057 175.895 672.532 162.501 659.139C149.108 645.745 141.583 627.581 141.58 608.64V564.35C141.58 558.796 142.674 553.296 144.8 548.164C146.926 543.032 150.042 538.37 153.97 534.443C157.898 530.516 162.561 527.401 167.693 525.276C172.825 523.152 178.326 522.059 183.88 522.06H213V680.06Z" fill="#3B1534"/>
<path d="M236.7 844.13L273.07 782.55C281.622 767.988 291.804 754.448 303.42 742.19C311.77 733.45 320.77 725.11 331.17 718.85C345.27 710.36 361.52 701.34 377.78 698.02C381.66 697.23 386.34 696.46 390.16 697.94C391.858 698.527 393.265 699.744 394.09 701.34C394.55 702.28 395.64 707.34 394.48 707.94L422.17 693.68C424 692.74 425.81 691.78 427.6 690.76C431.52 688.53 443.12 683.05 447.6 693.43C452.2 689.71 457.8 689.04 461.42 691.49C463.045 692.644 464.224 694.321 464.76 696.24C465.93 700.77 462.99 706.32 457.26 709.75C458.438 713.396 458.509 717.31 457.467 720.997C456.424 724.684 454.313 727.98 451.4 730.47L439.84 739.79C441.59 741.004 442.921 742.729 443.65 744.73C445.39 749.82 442.47 756.45 436.13 760.87C419.405 773.248 400.248 781.942 379.92 786.38C374.858 787.457 369.74 788.255 364.59 788.77L335.82 844.13H236.7Z" fill="#BD4632"/>
<path d="M394.48 707.94L373.6 719.3" stroke="#3B1534" stroke-width="5" stroke-miterlimit="10" stroke-linecap="round"/>
<path d="M447.57 693.43C447.57 693.43 441.88 705.26 404.5 722.81" stroke="#3B1534" stroke-width="5" stroke-miterlimit="10" stroke-linecap="round"/>
<path d="M457.23 709.75C457.23 709.75 422.8 734.89 409.8 739.05" stroke="#3B1534" stroke-width="5" stroke-miterlimit="10" stroke-linecap="round"/>
<path d="M439.81 739.79L411.94 757.76" stroke="#3B1534" stroke-width="5" stroke-miterlimit="10" stroke-linecap="round"/>
<path d="M267.7 687.31H176.85V554.67H309.48V645.52C309.481 651.007 308.402 656.441 306.303 661.512C304.204 666.582 301.126 671.189 297.247 675.069C293.367 678.95 288.761 682.028 283.691 684.129C278.621 686.229 273.188 687.31 267.7 687.31Z" fill="#BD4632"/>
<path d="M251.04 687.31H176.85V723.35H251.04V687.31Z" fill="#BD4632"/>
<path d="M179.07 651.57C192.866 651.57 204.05 640.386 204.05 626.59C204.05 612.794 192.866 601.61 179.07 601.61C165.274 601.61 154.09 612.794 154.09 626.59C154.09 640.386 165.274 651.57 179.07 651.57Z" fill="#BD4632"/>
<path d="M285.51 573.66C304.741 573.66 320.33 559.472 320.33 541.97C320.33 524.468 304.741 510.28 285.51 510.28C266.279 510.28 250.69 524.468 250.69 541.97C250.69 559.472 266.279 573.66 285.51 573.66Z" fill="#3B1534"/>
<path d="M182.84 601.61H166.31V545H219.22V565.24C219.22 570.017 218.279 574.747 216.451 579.161C214.622 583.574 211.942 587.584 208.564 590.961C205.186 594.338 201.175 597.017 196.761 598.844C192.348 600.672 187.617 601.611 182.84 601.61Z" fill="#3B1534"/>
<path d="M281.51 573.31H256.06C224.95 573.31 199.74 550.36 199.74 522.06L290.74 511.78V564.94C290.7 569.56 286.58 573.31 281.51 573.31Z" fill="#3B1534"/>
<path d="M179.9 636.35C183.578 636.35 186.56 633.368 186.56 629.69C186.56 626.012 183.578 623.03 179.9 623.03C176.222 623.03 173.24 626.012 173.24 629.69C173.24 633.368 176.222 636.35 179.9 636.35Z" stroke="#3B1534" stroke-width="5" stroke-miterlimit="10" stroke-linecap="round"/>
<path d="M171.58 616.83C171.58 616.83 183.83 618.57 185.84 626.7" stroke="#3B1534" stroke-width="5" stroke-miterlimit="10" stroke-linecap="round"/>
<path d="M108.51 709.793C143.699 681.682 162.481 646.696 150.461 631.65C138.441 616.603 100.17 627.194 64.9813 655.305C29.7924 683.416 11.0103 718.402 23.0303 733.449C35.0503 748.495 73.3208 737.904 108.51 709.793Z" fill="#3B1534"/>
<path d="M251 687.31H215.51C215.02 687.307 214.544 687.473 214.162 687.78C213.78 688.087 213.516 688.516 213.414 688.996C213.312 689.475 213.378 689.975 213.601 690.411C213.825 690.847 214.191 691.193 214.64 691.39L251 707.6V687.31Z" fill="#3B1534"/>
<path d="M268.65 656.48C266.334 656.484 264.039 656.031 261.898 655.147C259.757 654.264 257.811 652.966 256.171 651.33C254.532 649.693 253.231 647.75 252.344 645.61C251.457 643.47 251 641.176 251 638.86V638.68C251 637.41 251.505 636.191 252.403 635.293C253.301 634.395 254.52 633.89 255.79 633.89H281.44C282.71 633.89 283.929 634.395 284.827 635.293C285.725 636.191 286.23 637.41 286.23 638.68V638.86C286.23 643.526 284.379 648.002 281.083 651.305C277.788 654.608 273.316 656.469 268.65 656.48Z" fill="#3B1534"/>
<path d="M433.927 594.585L421.969 613.443L433.099 620.501L445.058 601.643L433.927 594.585Z" fill="#77C8D6"/>
<path d="M404.916 554.654L392.958 573.512L404.088 580.57L416.047 561.712L404.916 554.654Z" fill="#F985BF"/>
<path d="M411.455 652.582L399.497 671.44L410.628 678.499L422.586 659.641L411.455 652.582Z" fill="#FFB6DB"/>
<path d="M381.519 614.103L371.683 622.876L386.546 639.541L396.382 630.768L381.519 614.103Z" fill="#3B1534"/>
<path d="M223.29 496.66C233.12 495.41 239.29 502.88 239.67 503.3C239.67 503.3 245.2 494.66 254.54 492.72L219.22 445.72L195.33 501.13C200.532 501.167 205.514 503.23 209.22 506.88C209.48 506.35 213.65 497.89 223.29 496.66Z" fill="#F2EADA"/>
<path d="M239.67 503.3C239.33 502.88 233.12 495.41 223.29 496.66C213.65 497.89 209.48 506.35 209.22 506.91C205.514 503.26 200.532 501.197 195.33 501.16L185.45 526.4L271.9 516.91L254.54 492.72C245.2 494.66 239.67 503.3 239.67 503.3Z" fill="#FFB6DB"/>
<path d="M219.47 452.71C226.037 452.71 231.36 447.387 231.36 440.82C231.36 434.253 226.037 428.93 219.47 428.93C212.903 428.93 207.58 434.253 207.58 440.82C207.58 447.387 212.903 452.71 219.47 452.71Z" fill="#77C8D6"/>
</svg>
