<svg width="974" height="720" viewBox="0 0 974 720" fill="none" xmlns="http://www.w3.org/2000/svg">
<path d="M604.659 233.114L661.219 234.288C674.814 234.572 688.065 231.103 698.388 224.558C708.711 218.013 715.367 208.861 717.059 198.886L722.815 164.923L592.065 177.595C587.719 178.021 583.439 178.759 579.287 179.798L576.014 209.52C575.694 212.476 576.191 215.45 577.475 218.26C578.759 221.07 580.803 223.657 583.483 225.864C586.163 228.071 589.422 229.852 593.063 231.099C596.703 232.345 600.649 233.031 604.659 233.114Z" fill="#BD4632"/>
<path d="M747.467 162.533L722.815 164.923L717.059 198.886C715.367 208.861 708.711 218.013 698.388 224.558C688.064 231.103 674.814 234.572 661.219 234.288L604.659 233.114C600.649 233.031 596.703 232.345 593.063 231.099C589.422 229.852 586.163 228.071 583.483 225.864C580.803 223.657 578.759 221.07 577.475 218.26C576.191 215.45 575.694 212.476 576.014 209.52L579.286 179.834C566.093 183.15 554.634 189.435 546.519 197.809C538.403 206.183 534.037 216.225 534.034 226.526V254.75H566.469V342.079H725.065V254.714H822.855V211.428C822.853 204.411 820.826 197.474 816.909 191.082C812.992 184.69 807.274 178.99 800.138 174.362C793.003 169.733 784.613 166.284 775.53 164.244C766.447 162.205 756.88 161.621 747.467 162.533Z" fill="#FFB6DB"/>
<path d="M822.855 254.714H725.065V342.079H822.855V254.714Z" fill="#BD4632"/>
<path d="M566.469 254.714H534.034V342.079H566.469V254.714Z" fill="#BD4632"/>
<path d="M660.703 262.663C660.703 262.663 650.963 246.442 638.73 249.97C632.886 251.64 633.86 257.126 635.564 260.59C639.996 269.618 643.084 270.612 652.6 286.2C656.292 291.94 660.907 297.331 666.343 302.256C667.397 303.165 668.64 303.945 670.024 304.567C671.924 305.57 673.981 306.4 676.151 307.037C681.644 316.541 687.19 326.057 692.787 335.585C694.085 337.754 695.358 339.914 696.605 342.065H777.71L746.386 294.739C746.006 294.17 747.438 291.29 747.565 290.635C748.298 286.426 748.35 282.167 747.72 277.949C745.578 261.886 734.084 243.655 734.084 243.655C730.416 237.559 726.266 231.628 721.656 225.893C717.76 221.638 711.828 220.169 708.332 221.573C707.806 221.782 705.946 222.617 705.02 225.086C700.988 217.512 699.274 208.447 690.907 202.586C688.764 201.082 685.677 200.066 682.852 200.693C679.024 201.542 676.813 205.013 675.927 207.677C676.307 206.539 673.18 204.034 672.265 203.357C670.728 202.276 668.834 201.512 666.773 201.14C664.712 200.769 662.556 200.803 660.518 201.24C653.515 202.91 654.47 209.297 655.736 213.516C655.823 213.833 656.057 214.553 655.677 214.733C655.005 215.05 651.986 212.746 651.363 212.479C648.898 211.442 645.606 211.226 643.707 213.07C642.668 214.224 642.106 215.578 642.09 216.965C641.399 224.503 646.678 231.804 649.882 238.774C653.388 246.65 656.164 255.096 660.703 262.663Z" fill="#BD4632"/>
<path d="M702.507 248.911C702.507 248.911 688.774 277.25 720.487 293.695" stroke="#3B1534" stroke-width="5" stroke-miterlimit="10" stroke-linecap="round"/>
<path d="M675.537 206.215L690.264 238.306" stroke="#3B1534" stroke-width="5" stroke-miterlimit="10" stroke-linecap="round"/>
<path d="M655.901 214.056L670.628 246.154" stroke="#3B1534" stroke-width="5" stroke-miterlimit="10" stroke-linecap="round"/>
<path d="M822.855 657.814H503.626V616.32C503.629 603.246 510.656 590.709 523.163 581.465C535.669 572.222 552.63 567.029 570.316 567.029H756.165C773.85 567.029 790.812 572.222 803.318 581.465C815.825 590.709 822.852 603.246 822.855 616.32V657.814Z" fill="#3B1534"/>
<path d="M855.854 417.996C855.854 410.031 851.576 402.392 843.96 396.758C836.343 391.124 826.013 387.956 815.238 387.95H462.241C456.904 387.95 451.619 388.728 446.688 390.238C441.758 391.748 437.278 393.961 433.504 396.751C429.731 399.541 426.738 402.853 424.696 406.499C422.655 410.144 421.604 414.051 421.606 417.996V422.122H855.854V417.996Z" stroke="#77C8D6" stroke-width="5" stroke-miterlimit="10" stroke-linecap="round"/>
<path d="M421.606 422.122V627.775C421.606 635.742 425.887 643.382 433.508 649.016C441.128 654.649 451.464 657.814 462.241 657.814H815.238C820.575 657.815 825.86 657.038 830.792 655.529C835.723 654.02 840.204 651.807 843.978 649.018C847.752 646.229 850.746 642.917 852.789 639.272C854.832 635.627 855.883 631.72 855.883 627.775V422.122H421.606Z" stroke="#77C8D6" stroke-width="5" stroke-miterlimit="10" stroke-linecap="round"/>
<path d="M752.464 414.18C757.988 414.18 762.467 410.869 762.467 406.786C762.467 402.702 757.988 399.391 752.464 399.391C746.939 399.391 742.461 402.702 742.461 406.786C742.461 410.869 746.939 414.18 752.464 414.18Z" fill="#FFB6DB"/>
<path d="M784.391 414.18C789.916 414.18 794.394 410.869 794.394 406.786C794.394 402.702 789.916 399.391 784.391 399.391C778.867 399.391 774.388 402.702 774.388 406.786C774.388 410.869 778.867 414.18 784.391 414.18Z" fill="#FFB6DB"/>
<path d="M816.329 414.18C821.853 414.18 826.332 410.869 826.332 406.786C826.332 402.702 821.853 399.391 816.329 399.391C810.804 399.391 806.326 402.702 806.326 406.786C806.326 410.869 810.804 414.18 816.329 414.18Z" fill="#FFB6DB"/>
<path d="M855.854 102.24C855.849 94.2783 851.568 86.6438 843.952 81.014C836.336 75.3843 826.008 72.2198 815.238 72.216H462.241C451.467 72.216 441.134 75.3788 433.514 81.009C425.894 86.6391 421.611 94.2758 421.606 102.24V106.373H855.854V102.24Z" stroke="#77C8D6" stroke-width="5" stroke-miterlimit="10" stroke-linecap="round"/>
<path d="M421.606 106.387V312.041C421.606 320.007 425.887 327.648 433.508 333.281C441.128 338.914 451.464 342.079 462.241 342.079H815.238C820.575 342.08 825.86 341.304 830.792 339.795C835.723 338.286 840.204 336.073 843.978 333.284C847.752 330.494 850.746 327.183 852.789 323.538C854.832 319.893 855.883 315.986 855.883 312.041V106.387H421.606Z" stroke="#77C8D6" stroke-width="5" stroke-miterlimit="10" stroke-linecap="round"/>
<path d="M752.464 98.4384C757.988 98.4384 762.467 95.1278 762.467 91.044C762.467 86.9602 757.988 83.6496 752.464 83.6496C746.939 83.6496 742.461 86.9602 742.461 91.044C742.461 95.1278 746.939 98.4384 752.464 98.4384Z" fill="#FFB6DB"/>
<path d="M784.391 98.4384C789.916 98.4384 794.394 95.1278 794.394 91.044C794.394 86.9602 789.916 83.6496 784.391 83.6496C778.867 83.6496 774.388 86.9602 774.388 91.044C774.388 95.1278 778.867 98.4384 784.391 98.4384Z" fill="#FFB6DB"/>
<path d="M816.329 98.4384C821.853 98.4384 826.332 95.1278 826.332 91.044C826.332 86.9602 821.853 83.6496 816.329 83.6496C810.804 83.6496 806.326 86.9602 806.326 91.044C806.326 95.1278 810.804 98.4384 816.329 98.4384Z" fill="#FFB6DB"/>
<path d="M497.88 258.53C497.88 250.564 493.598 242.923 485.978 237.29C478.357 231.657 468.021 228.492 457.244 228.492H104.276C98.9392 228.491 93.6542 229.267 88.7229 230.776C83.7917 232.286 79.311 234.498 75.5366 237.288C71.7622 240.077 68.7682 243.389 66.7255 247.034C64.6827 250.678 63.6313 254.585 63.6313 258.53V262.663H497.88V258.53Z" fill="white"/>
<path d="M497.88 258.53C497.88 250.564 493.598 242.923 485.978 237.29C478.357 231.657 468.021 228.492 457.244 228.492H104.276C98.9392 228.491 93.6542 229.267 88.7229 230.776C83.7917 232.286 79.311 234.498 75.5366 237.288C71.7622 240.077 68.7682 243.389 66.7255 247.034C64.6827 250.678 63.6313 254.585 63.6313 258.53V262.663H497.88V258.53Z" stroke="#77C8D6" stroke-width="5" stroke-miterlimit="10" stroke-linecap="round"/>
<path d="M63.6313 262.663V468.317C63.6313 472.262 64.6827 476.169 66.7255 479.814C68.7682 483.459 71.7622 486.77 75.5366 489.56C79.311 492.349 83.7917 494.562 88.7229 496.071C93.6542 497.58 98.9392 498.356 104.276 498.355H457.244C468.021 498.355 478.357 495.19 485.978 489.557C493.598 483.924 497.88 476.283 497.88 468.317V262.663H63.6313Z" fill="white"/>
<path d="M63.6313 262.663V468.317C63.6313 472.262 64.6827 476.169 66.7255 479.814C68.7682 483.459 71.7622 486.77 75.5366 489.56C79.311 492.349 83.7917 494.562 88.7229 496.071C93.6542 497.58 98.9392 498.356 104.276 498.355H457.244C468.021 498.355 478.357 495.19 485.978 489.557C493.598 483.924 497.88 476.283 497.88 468.317V262.663H63.6313Z" stroke="#77C8D6" stroke-width="5" stroke-miterlimit="10" stroke-linecap="round"/>
<path d="M394.49 254.714C400.014 254.714 404.493 251.404 404.493 247.32C404.493 243.236 400.014 239.926 394.49 239.926C388.965 239.926 384.487 243.236 384.487 247.32C384.487 251.404 388.965 254.714 394.49 254.714Z" fill="#FFB6DB"/>
<path d="M426.427 254.714C431.952 254.714 436.43 251.404 436.43 247.32C436.43 243.236 431.952 239.926 426.427 239.926C420.903 239.926 416.424 243.236 416.424 247.32C416.424 251.404 420.903 254.714 426.427 254.714Z" fill="#FFB6DB"/>
<path d="M458.364 254.714C463.889 254.714 468.367 251.404 468.367 247.32C468.367 243.236 463.889 239.926 458.364 239.926C452.84 239.926 448.361 243.236 448.361 247.32C448.361 251.404 452.84 254.714 458.364 254.714Z" fill="#FFB6DB"/>
<path d="M700.637 536.069L699.137 535.882L716.523 460.282L750.993 464.602L739.208 515.815C738.477 519.018 736.9 522.084 734.565 524.836C732.231 527.588 729.186 529.973 725.603 531.854C722.021 533.735 717.972 535.075 713.688 535.799C709.404 536.522 704.969 536.614 700.637 536.069Z" fill="#BD4632"/>
<path d="M712.695 543.802L612.295 542.318C596.507 542.081 585.199 530.503 589.319 518.789L611.331 456.149C614.857 446.119 627.646 439.74 640.999 441.353L742.461 453.593L712.695 543.802Z" fill="#F985BF"/>
<path d="M704.465 568.8C700.462 570.802 677.787 580.154 652.424 575.237C644.322 573.636 636.792 570.743 630.363 566.762C635.876 553.831 641.395 540.9 646.921 527.969L717.507 529.2L704.465 568.8Z" fill="#F985BF"/>
<path d="M752.464 460.08C752.464 455.052 749.762 450.23 744.952 446.675C740.143 443.12 733.62 441.122 726.818 441.122H725.942L644.126 427.406C640.491 422.828 634.961 419.235 628.352 417.159C621.744 415.082 614.406 414.633 607.425 415.876C600.444 417.119 594.188 419.989 589.583 424.062C584.978 428.135 582.267 433.195 581.851 438.494C581.435 443.793 583.336 449.051 587.273 453.491C591.21 457.93 596.975 461.316 603.715 463.147C610.455 464.979 617.813 465.159 624.702 463.661C631.592 462.164 637.647 459.068 641.973 454.831L695.436 463.817C695.167 469.576 697.734 475.213 702.66 479.68C707.585 484.147 714.535 487.142 722.221 488.11L733.802 489.55L736.549 477.59C741.25 476.166 745.273 473.741 748.107 470.624C750.941 467.506 752.457 463.836 752.464 460.08Z" fill="#BD4632"/>
<path d="M630.373 516.168C630.373 516.168 638.165 521.813 648.742 514.951" stroke="#3B1534" stroke-width="5" stroke-miterlimit="10" stroke-linecap="round"/>
<path d="M640.522 542.758L673.862 543.247C674.18 543.254 674.486 543.342 674.729 543.494C674.971 543.647 675.136 543.857 675.197 544.088C675.257 544.319 675.208 544.559 675.06 544.767C674.911 544.976 674.67 545.14 674.378 545.234L634.366 557.791L640.522 542.758Z" fill="#3B1534"/>
<path d="M322.93 532.08H219.89C211.219 532.08 204.189 537.276 204.189 543.686V590.767C204.189 597.177 211.219 602.374 219.89 602.374H322.93C331.601 602.374 338.631 597.177 338.631 590.767V543.686C338.631 537.276 331.601 532.08 322.93 532.08Z" fill="#77C8D6"/>
<path d="M319.092 625.723L317.144 601.654H275.993L319.092 625.723Z" fill="#77C8D6"/>
<path d="M219.082 557.654H321.284" stroke="#F2EADA" stroke-width="5" stroke-miterlimit="10" stroke-linecap="round"/>
<path d="M219.082 577.31H289.015" stroke="#F2EADA" stroke-width="5" stroke-miterlimit="10" stroke-linecap="round"/>
<path d="M274.454 65.016H171.414C162.743 65.016 155.713 70.2124 155.713 76.6224V123.703C155.713 130.113 162.743 135.31 171.414 135.31H274.454C283.125 135.31 290.155 130.113 290.155 123.703V76.6224C290.155 70.2124 283.125 65.016 274.454 65.016Z" fill="#77C8D6"/>
<path d="M748.49 122.911C748.484 118.044 746.815 113.257 743.636 108.995C740.457 104.733 735.872 101.134 730.308 98.5327C724.743 95.9314 718.379 94.4122 711.807 94.1163C705.235 93.8204 698.669 94.7573 692.719 96.84L594.257 112.363L610.172 167.522L710.173 151.754C720.398 151.617 730.142 148.517 737.308 143.123C744.474 137.729 748.489 130.471 748.49 122.911Z" fill="#3B1534"/>
<path d="M687.854 78.3243L630.732 88.7271L651.438 150.856L708.56 140.453L687.854 78.3243Z" fill="#3B1534"/>
<path d="M691.287 88.74L543.901 115.589L536.986 94.8384C534.231 86.5653 536.033 77.8221 541.996 70.5311C547.96 63.2402 557.596 57.9984 568.787 55.9584L631.775 44.4888C637.317 43.4784 643.074 43.285 648.716 43.9197C654.359 44.5543 659.777 46.0046 664.662 48.1877C669.546 50.3708 673.801 53.2438 677.183 56.6427C680.564 60.0416 683.007 63.8998 684.371 67.9968L691.287 88.74Z" fill="#3B1534"/>
<path d="M175.252 158.659L177.2 134.59H218.351L175.252 158.659Z" fill="#77C8D6"/>
<path d="M677.446 157.529L593.478 180.122C585.847 181.511 577.782 180.603 571.057 177.598C564.332 174.592 559.497 169.735 557.615 164.095L535.34 97.2576L647.252 66.96L677.446 157.529Z" fill="#BD4632"/>
<path d="M658.288 129.485C669.885 129.485 679.287 122.535 679.287 113.962C679.287 105.388 669.885 98.4384 658.288 98.4384C646.69 98.4384 637.288 105.388 637.288 113.962C637.288 122.535 646.69 129.485 658.288 129.485Z" fill="#BD4632"/>
<path d="M675.779 159.278L612.12 171.406L622.605 201.479L686.264 189.351L675.779 159.278Z" fill="#BD4632"/>
<path d="M659.339 120.355C662.599 120.355 665.242 118.402 665.242 115.992C665.242 113.582 662.599 111.629 659.339 111.629C656.08 111.629 653.437 113.582 653.437 115.992C653.437 118.402 656.08 120.355 659.339 120.355Z" stroke="#3B1534" stroke-width="5" stroke-miterlimit="10" stroke-linecap="round"/>
<path d="M666.713 107.561C666.713 107.561 655.853 108.698 654.051 114.041" stroke="#3B1534" stroke-width="5" stroke-miterlimit="10" stroke-linecap="round"/>
<path d="M584.517 145.57L604.299 140.249C604.816 140.109 605.367 140.051 605.916 140.08C606.465 140.108 607 140.223 607.485 140.415C607.97 140.608 608.394 140.874 608.73 141.196C609.065 141.519 609.305 141.89 609.432 142.286C611.799 149.71 609.929 159.566 597.208 159.631C588.832 159.689 583.475 154.368 582.004 148.759C581.851 148.094 582.019 147.411 582.478 146.828C582.938 146.245 583.659 145.8 584.517 145.57Z" fill="#3B1534"/>
<path d="M672.411 96.2928L636.782 104.4C624.66 107.156 611.554 106.241 600.345 101.855C589.136 97.47 580.742 89.9736 577.007 81.0144L575.917 78.3936L657.255 59.8824L672.411 96.2928Z" fill="#3B1534"/>
<path d="M217.289 285.284L177.233 291.6L193.283 347.228L233.339 340.913L217.289 285.284Z" fill="#3B1534"/>
<path d="M175.193 90.0432H277.395" stroke="#F2EADA" stroke-width="5" stroke-miterlimit="10" stroke-linecap="round"/>
<path d="M175.193 109.692H245.127" stroke="#F2EADA" stroke-width="5" stroke-miterlimit="10" stroke-linecap="round"/>
<path d="M357.828 197.856C385.924 197.856 408.7 181.019 408.7 160.25C408.7 139.481 385.924 122.645 357.828 122.645C329.732 122.645 306.956 139.481 306.956 160.25C306.956 181.019 329.732 197.856 357.828 197.856Z" fill="#FFB6DB"/>
<path d="M347.893 167.674L364.276 163.03C365.184 162.771 366.192 162.786 367.085 163.071C367.977 163.357 368.682 163.89 369.049 164.556C372.828 171.403 372.224 177.725 367.958 180.59C366.202 181.712 363.957 182.328 361.637 182.326C355.5 182.362 349.315 178.006 345.731 171.23C345.555 170.892 345.471 170.531 345.484 170.169C345.497 169.806 345.607 169.449 345.809 169.119C346.01 168.788 346.297 168.49 346.655 168.242C347.013 167.994 347.434 167.801 347.893 167.674Z" fill="#3B1534"/>
<path d="M331.91 147.874C330.531 148.081 329.231 148.512 328.102 149.134C326.974 149.756 326.046 150.555 325.384 151.474C324.052 150.916 322.553 150.613 321.022 150.591C319.492 150.57 317.978 150.831 316.618 151.351C311.378 153.547 312.722 157.759 316.112 160.481C320.008 163.591 325.345 165.463 330.449 167.22C330.897 167.425 331.429 167.504 331.949 167.443C332.455 167.286 332.864 166.996 333.098 166.63C335.287 164.001 337.192 161.249 338.796 158.4C340.277 155.743 341.436 152.539 339.312 150.134C338.495 149.283 337.367 148.621 336.06 148.225C334.752 147.83 333.32 147.718 331.93 147.902L331.91 147.874Z" fill="#F985BF"/>
<path d="M376.87 136.8C375.491 137.01 374.192 137.441 373.065 138.063C371.937 138.685 371.008 139.483 370.344 140.4C369.01 139.845 367.512 139.544 365.982 139.523C364.452 139.501 362.939 139.761 361.578 140.278C356.338 142.481 357.682 146.693 361.071 149.407C364.967 152.518 370.305 154.397 375.409 156.154C375.86 156.352 376.389 156.431 376.909 156.377C377.417 156.219 377.828 155.926 378.058 155.556C380.251 152.927 382.156 150.172 383.756 147.319C385.236 144.67 386.395 141.466 384.272 139.061C383.464 138.21 382.346 137.546 381.047 137.146C379.749 136.746 378.325 136.626 376.938 136.8H376.87Z" fill="#F985BF"/>
<path d="M330.615 382.37L235.835 397.318L205.709 292.918L337.851 272.088L360.01 348.89C362.115 356.211 360.201 363.851 354.688 370.129C349.176 376.407 340.517 380.81 330.615 382.37Z" fill="#BD4632"/>
<path d="M216.832 364.334C229.941 364.334 240.568 356.479 240.568 346.788C240.568 337.097 229.941 329.242 216.832 329.242C203.723 329.242 193.095 337.097 193.095 346.788C193.095 356.479 203.723 364.334 216.832 364.334Z" fill="#BD4632"/>
<path d="M218.429 353.419C222.41 353.419 225.637 351.034 225.637 348.091C225.637 345.149 222.41 342.763 218.429 342.763C214.449 342.763 211.222 345.149 211.222 348.091C211.222 351.034 214.449 353.419 218.429 353.419Z" stroke="#3B1534" stroke-width="5" stroke-miterlimit="10" stroke-linecap="round"/>
<path d="M209.41 337.81C209.41 337.81 222.666 339.199 224.838 345.73" stroke="#3B1534" stroke-width="5" stroke-miterlimit="10" stroke-linecap="round"/>
<path d="M339.926 241.373C334.739 241.369 329.609 242.171 324.868 243.727C316.579 234.216 298.745 227.635 278.116 227.635C252.889 227.635 231.89 237.442 227.302 250.409C218.027 247.188 207.508 246.504 197.615 248.479C175.515 252.799 161.947 268.481 167.314 283.536C171.726 295.92 187.573 304.006 205.3 304.092C211.183 306.932 218.065 308.434 225.091 308.412C239.925 308.412 252.548 301.932 257.233 292.903C260.727 295.656 264.953 297.845 269.647 299.332C274.34 300.819 279.399 301.572 284.505 301.543C298.55 301.543 310.706 296.021 316.647 287.978C323.235 291.913 331.457 294.046 339.926 294.019C360.039 294.019 376.344 282.24 376.344 267.696C376.344 253.152 360.01 241.373 339.926 241.373Z" fill="#3B1534"/>
<path d="M463.157 498.038H130.799L128.851 485.683C126.823 473.019 131.591 460.271 142.132 450.176C152.674 440.08 168.148 433.441 185.235 431.683L379.704 411.689C396.902 409.922 414.349 413.24 428.257 420.924C442.165 428.607 451.412 440.036 453.991 452.729L463.157 498.038Z" fill="#77C8D6"/>
<path d="M311.164 377.878L232.786 387.418L237.948 410.573L316.004 399.593L311.164 377.878Z" fill="#BD4632"/>
<path d="M237.948 410.573L242.117 429.3L320.495 419.76L316.005 399.593L237.948 410.573Z" fill="#77C8D6"/>
<path d="M266.983 406.49L271.045 425.779" stroke="#3B1534" stroke-width="5" stroke-miterlimit="10" stroke-linecap="round"/>
<path d="M289.044 403.589L293.106 422.878" stroke="#3B1534" stroke-width="5" stroke-miterlimit="10" stroke-linecap="round"/>
<path d="M81.8063 410.616C111.597 410.616 135.746 392.764 135.746 370.742C135.746 348.721 111.597 330.869 81.8063 330.869C52.016 330.869 27.8662 348.721 27.8662 370.742C27.8662 392.764 52.016 410.616 81.8063 410.616Z" fill="#FFB6DB"/>
<path d="M94.556 371.29C94.4021 370.861 94.1296 370.46 93.7559 370.113C93.3821 369.766 92.9151 369.48 92.3843 369.273C91.8536 369.066 91.2706 368.943 90.672 368.911C90.0735 368.878 89.4725 368.938 88.9068 369.086C84.5238 370.234 80.0531 371.455 75.4948 372.751C70.0599 374.299 64.7808 375.883 59.7939 377.474C58.7693 377.802 57.9554 378.41 57.5217 379.17C57.0881 379.931 57.0681 380.786 57.4661 381.557C58.3445 383.253 59.4472 384.881 60.7582 386.417L95.7151 375.725C95.4696 374.228 95.0823 372.746 94.556 371.29Z" fill="#F2EADA"/>
<path d="M60.7385 386.417C65.2579 391.73 71.8324 394.992 78.6017 395.136C82.1453 395.212 85.6303 394.456 88.556 392.976C95.1402 389.477 96.7668 382.356 95.6954 375.746L60.7385 386.417Z" fill="#3B1534"/>
<path d="M312.79 385.2L276.275 390.96C276.005 391.001 275.762 391.11 275.587 391.268C275.413 391.426 275.317 391.624 275.317 391.828C275.317 392.032 275.413 392.229 275.587 392.387C275.762 392.546 276.005 392.654 276.275 392.695L316.005 399.6L312.79 385.2Z" fill="#3B1534"/>
<path d="M613.62 172.31L641.184 164.786C641.497 164.702 641.839 164.699 642.154 164.778C642.47 164.856 642.74 165.011 642.921 165.217C643.102 165.424 643.183 165.669 643.15 165.914C643.118 166.159 642.974 166.388 642.743 166.565L617.419 185.868L613.62 172.31Z" fill="#3B1534"/>
<path d="M773.658 338.666L746.386 294.746C746.367 281.257 744.183 267.816 739.88 254.707C739.88 254.707 737.191 246.737 729.75 235.706C722.309 224.676 718.062 222.869 714.614 222.559C710.65 222.214 707.143 223.826 704.981 225.094L700.666 215.568C698.855 211.45 696.283 206.489 691.9 203.479C689.949 202.185 687.384 201.514 684.766 201.616C682.148 201.717 679.691 202.581 677.933 204.019L677.855 204.084C676.93 204.894 676.151 205.789 675.537 206.748C675.465 206.598 675.381 206.451 675.284 206.309C675.284 206.309 675.06 205.949 674.787 205.589C672.839 203.004 669.985 200.362 665.895 199.606C662.047 198.886 657.031 200.002 654.986 202.637C654.129 203.84 653.751 205.198 653.895 206.554C654.101 208.303 654.518 210.036 655.142 211.73C655.346 212.364 656.116 213.682 655.853 214.344C655.784 214.488 655.853 214.704 655.648 214.769C655.2 214.949 654.246 214.049 653.164 213.329C652.108 212.659 650.84 212.197 649.478 211.987C648.115 211.777 646.703 211.825 645.372 212.126C640.142 213.336 641.301 217.886 642.45 220.925C644.028 225.302 645.752 229.615 647.428 233.964" stroke="#3B1534" stroke-width="5" stroke-miterlimit="10" stroke-linecap="round"/>
<path d="M574.66 178.87C574.66 178.87 583.543 182.225 601.192 177.35C605.224 176.234 609.315 175.248 613.425 174.29L613.62 174.24" stroke="#3B1534" stroke-width="5" stroke-miterlimit="10" stroke-linecap="round"/>
<path d="M305.096 347.76L325.55 344.081C326.084 343.984 326.639 343.972 327.18 344.046C327.72 344.119 328.234 344.276 328.686 344.507C329.139 344.737 329.52 345.036 329.806 345.383C330.091 345.73 330.274 346.118 330.342 346.522C331.598 354.089 328.267 363.715 315.625 362.772C307.287 362.146 302.748 356.422 302.125 350.726C302.072 350.053 302.34 349.387 302.883 348.845C303.426 348.303 304.209 347.919 305.096 347.76Z" fill="#3B1534"/>
<path d="M726.01 515.938C737.903 515.938 747.545 508.81 747.545 500.018C747.545 491.227 737.903 484.099 726.01 484.099C714.116 484.099 704.475 491.227 704.475 500.018C704.475 508.81 714.116 515.938 726.01 515.938Z" fill="#F985BF"/>
<path d="M725.065 507.031C729.245 507.031 732.633 504.527 732.633 501.437C732.633 498.347 729.245 495.842 725.065 495.842C720.885 495.842 717.497 498.347 717.497 501.437C717.497 504.527 720.885 507.031 725.065 507.031Z" stroke="#3B1534" stroke-width="5" stroke-miterlimit="10" stroke-linecap="round"/>
<path d="M734.513 490.637C734.513 490.637 720.595 492.077 718.306 498.924" stroke="#3B1534" stroke-width="5" stroke-miterlimit="10" stroke-linecap="round"/>
<path d="M870.269 541.224C900.059 541.224 924.209 523.372 924.209 501.35C924.209 479.329 900.059 461.477 870.269 461.477C840.479 461.477 816.329 479.329 816.329 501.35C816.329 523.372 840.479 541.224 870.269 541.224Z" fill="#FFB6DB"/>
<path d="M872.607 508.255H898.028V516.341C898.028 518.823 896.694 521.204 894.319 522.959C891.945 524.715 888.724 525.701 885.366 525.701C882.008 525.701 878.787 524.715 876.413 522.959C874.038 521.204 872.704 518.823 872.704 516.341L872.607 508.255Z" fill="#3B1534"/>
<path d="M847.73 508.255H895.651" stroke="#3B1534" stroke-width="5" stroke-miterlimit="10" stroke-linecap="round"/>
</svg>
