<svg width="26" height="26" viewBox="0 0 26 26" fill="none" xmlns="http://www.w3.org/2000/svg">
<path d="M16.2313 8.65595L12.985 11.9023L9.73865 8.65595C9.59516 8.51245 9.40054 8.43184 9.1976 8.43184C8.99467 8.43184 8.80005 8.51245 8.65655 8.65595C8.51305 8.79945 8.43244 8.99407 8.43244 9.197C8.43244 9.39994 8.51305 9.59456 8.65655 9.73806L11.9029 12.9844L8.65655 16.2307C8.51305 16.3742 8.43244 16.5688 8.43244 16.7717C8.43244 16.9747 8.51305 17.1693 8.65655 17.3128C8.80005 17.4563 8.99467 17.5369 9.1976 17.5369C9.40054 17.5369 9.59516 17.4563 9.73865 17.3128L12.985 14.0665L16.2313 17.3128C16.3748 17.4563 16.5694 17.5369 16.7723 17.5369C16.9753 17.5369 17.1699 17.4563 17.3134 17.3128C17.4569 17.1693 17.5375 16.9747 17.5375 16.7717C17.5375 16.5688 17.4569 16.3742 17.3134 16.2307L14.0671 12.9844L17.3134 9.73806C17.4569 9.59456 17.5375 9.39994 17.5375 9.197C17.5375 8.99407 17.4569 8.79945 17.3134 8.65595C17.1699 8.51245 16.9753 8.43184 16.7723 8.43184C16.5694 8.43184 16.3748 8.51245 16.2313 8.65595Z" fill="#333333"/>
</svg>
