<svg width="298" height="483" viewBox="0 0 298 483" fill="none" xmlns="http://www.w3.org/2000/svg">
<g clip-path="url(#clip0_88_235)">
<path d="M144.92 254.032C168.456 254.032 187.536 234.952 187.536 211.415C187.536 187.879 168.456 168.799 144.92 168.799C121.384 168.799 102.304 187.879 102.304 211.415C102.304 234.952 121.384 254.032 144.92 254.032Z" fill="#F55656"/>
<path d="M41.2731 315.113C40.3702 314.68 39.6004 314.012 39.0444 313.18C38.4884 312.347 38.1668 311.38 38.1133 310.38L37.4933 298.644C37.4169 297.168 37.929 295.722 38.9174 294.624C39.9058 293.525 41.2897 292.863 42.7654 292.784L140.582 287.616C142.058 287.54 143.504 288.052 144.602 289.04C145.701 290.029 146.363 291.413 146.442 292.888L147.062 304.625C147.139 306.1 146.626 307.546 145.638 308.645C144.65 309.743 143.266 310.405 141.79 310.485L43.9736 315.652C43.0424 315.703 42.1135 315.517 41.2731 315.113Z" fill="#F55656"/>
<path d="M108.703 315.343C107.752 314.882 106.95 314.162 106.391 313.264C105.832 312.367 105.54 311.33 105.547 310.273L105.431 288.176C105.436 287.444 105.586 286.719 105.871 286.045C106.156 285.37 106.572 284.759 107.094 284.245C107.616 283.731 108.234 283.325 108.913 283.05C109.592 282.776 110.318 282.637 111.051 282.644L155.675 286.577C156.856 286.585 158.347 288.415 159.546 289.884C159.922 290.345 160.247 290.743 160.484 290.984C160.588 291.09 160.687 291.2 160.781 291.312C161.634 292.327 162.096 293.614 162.084 294.94L161.986 306.691C161.972 308.169 161.372 309.581 160.319 310.617C159.265 311.653 157.843 312.23 156.366 312.219L111.109 315.892C110.276 315.889 109.455 315.702 108.703 315.343Z" fill="#2F2E41"/>
<path d="M136.613 482.027H124.86C123.382 482.025 121.965 481.437 120.92 480.393C119.876 479.348 119.288 477.931 119.286 476.453V376.907C119.288 375.43 119.876 374.013 120.921 372.968C121.965 371.923 123.382 371.335 124.86 371.333H136.613C138.09 371.335 139.507 371.923 140.552 372.968C141.597 374.013 142.185 375.43 142.186 376.907V476.453C142.185 477.931 141.597 479.348 140.552 480.393C139.507 481.437 138.09 482.025 136.613 482.027Z" fill="#F55656"/>
<path d="M167.613 482.027H155.86C154.382 482.025 152.965 481.437 151.92 480.393C150.876 479.348 150.288 477.931 150.286 476.453V376.907C150.288 375.43 150.876 374.013 151.921 372.968C152.965 371.923 154.382 371.335 155.86 371.333H167.613C169.09 371.335 170.507 371.923 171.552 372.968C172.597 374.013 173.185 375.43 173.186 376.907V476.453C173.185 477.931 172.597 479.348 171.552 480.393C170.507 481.437 169.09 482.025 167.613 482.027Z" fill="#F55656"/>
<path d="M150.593 227.21L150.637 225.618C147.674 225.535 145.062 225.35 143.1 223.916C142.543 223.486 142.086 222.942 141.759 222.319C141.431 221.697 141.242 221.012 141.203 220.31C141.169 219.881 141.234 219.45 141.393 219.05C141.552 218.65 141.801 218.293 142.121 218.005C143.424 216.905 145.521 217.261 147.049 217.961L148.366 218.566L145.84 200.1L144.262 200.316L146.411 216.024C145.531 215.697 144.584 215.596 143.655 215.73C142.726 215.864 141.846 216.228 141.093 216.789C140.588 217.23 140.191 217.783 139.934 218.404C139.677 219.024 139.567 219.696 139.612 220.366C139.659 221.309 139.911 222.23 140.351 223.066C140.791 223.901 141.409 224.63 142.16 225.202C144.682 227.045 147.959 227.136 150.593 227.21Z" fill="#2F2E41"/>
<path d="M136.459 201.67H127.882V203.263H136.459V201.67Z" fill="#2F2E41"/>
<path d="M163.532 201.67H154.955V203.263H163.532V201.67Z" fill="#2F2E41"/>
<path d="M193.472 353.339L154.137 274.901H154.692C156.064 274.899 157.38 274.353 158.35 273.383C159.32 272.413 159.866 271.097 159.868 269.725V268.132C159.866 266.76 159.32 265.445 158.35 264.474C157.38 263.504 156.064 262.958 154.692 262.957H137.174C135.801 262.958 134.486 263.504 133.516 264.474C132.545 265.445 131.999 266.76 131.998 268.132V269.725C132.002 270.991 132.471 272.211 133.315 273.154C134.16 274.097 135.321 274.697 136.579 274.841L97.1312 353.382C95.2552 357.117 94.366 361.27 94.5482 365.446C94.7304 369.622 95.978 373.682 98.1723 377.239C100.367 380.797 103.435 383.734 107.085 385.771C110.734 387.808 114.845 388.878 119.025 388.878H171.536C175.722 388.878 179.837 387.807 183.492 385.768C187.147 383.729 190.22 380.789 192.418 377.227C194.616 373.666 195.867 369.601 196.051 365.42C196.236 361.239 195.348 357.08 193.472 353.339Z" fill="#2F2E41"/>
<path d="M146.76 292.653L235.487 251.152C236.826 250.527 238.359 250.459 239.748 250.963C241.137 251.466 242.27 252.501 242.897 253.839L247.877 264.484C248.501 265.823 248.569 267.356 248.065 268.745C247.562 270.134 246.527 271.267 245.189 271.895L156.463 313.396C155.123 314.021 153.591 314.089 152.202 313.585C150.813 313.081 149.68 312.047 149.052 310.709L144.073 300.063C143.761 299.401 143.584 298.683 143.552 297.952C143.519 297.22 143.632 296.49 143.884 295.802C144.081 295.257 144.361 294.746 144.715 294.287C145.256 293.587 145.958 293.026 146.76 292.653Z" fill="#F55656"/>
<path d="M143.718 292.397L182.781 269.113C184.112 268.474 185.643 268.389 187.037 268.877C188.431 269.365 189.575 270.386 190.218 271.716L200.069 291.507C200.387 292.169 200.572 292.887 200.611 293.621C200.651 294.354 200.546 295.089 200.301 295.781C200.056 296.474 199.676 297.111 199.184 297.656C198.692 298.201 198.096 298.644 197.432 298.958L155.704 315.078C154.611 315.604 152.466 314.62 150.742 313.829C150.201 313.581 149.735 313.367 149.416 313.256C149.275 313.207 149.138 313.152 149.004 313.093C147.791 312.557 146.809 311.606 146.236 310.411L141.142 299.82C140.694 298.886 140.514 297.846 140.622 296.816C140.73 295.786 141.123 294.806 141.755 293.986C142.276 293.31 142.949 292.766 143.718 292.397Z" fill="#2F2E41"/>
<path d="M111.261 189.25C110.691 189.248 110.145 189.021 109.742 188.617C109.339 188.214 109.112 187.668 109.11 187.098C109.108 186.928 109.127 186.759 109.167 186.595L120.305 137.531C120.39 137.162 120.57 136.821 120.827 136.543C121.085 136.265 121.411 136.059 121.773 135.946C122.134 135.834 122.519 135.818 122.889 135.901C123.259 135.984 123.601 136.163 123.88 136.419L160.808 170.616C161.086 170.873 161.291 171.199 161.403 171.561C161.515 171.923 161.531 172.308 161.447 172.678C161.364 173.047 161.186 173.388 160.929 173.667C160.673 173.946 160.348 174.153 159.987 174.267L111.908 189.153C111.699 189.217 111.48 189.25 111.261 189.25Z" fill="#3F3D56"/>
<path d="M141.465 153.383L118.269 148.767L118.634 147.156L139.141 151.233L141.465 153.383Z" fill="white"/>
<path d="M159.73 170.303L115.38 161.478L115.745 159.859L157.405 168.144L159.73 170.303Z" fill="white"/>
<path d="M143.864 178.738L140.535 179.767L112.499 174.188L112.864 172.569L143.864 178.738Z" fill="white"/>
<path d="M252 190C255.866 190 259 186.866 259 183C259 179.134 255.866 176 252 176C248.134 176 245 179.134 245 183C245 186.866 248.134 190 252 190Z" fill="#F55656"/>
<path d="M162 10C164.761 10 167 7.76142 167 5C167 2.23858 164.761 0 162 0C159.239 0 157 2.23858 157 5C157 7.76142 159.239 10 162 10Z" fill="#FF6584"/>
<path d="M53 165C55.7614 165 58 162.761 58 160C58 157.239 55.7614 155 53 155C50.2386 155 48 157.239 48 160C48 162.761 50.2386 165 53 165Z" fill="#FF6584"/>
<path d="M228 148C230.761 148 233 145.761 233 143C233 140.239 230.761 138 228 138C225.239 138 223 140.239 223 143C223 145.761 225.239 148 228 148Z" fill="#F55656"/>
<path d="M76 216C78.7614 216 81 213.761 81 211C81 208.239 78.7614 206 76 206C73.2386 206 71 208.239 71 211C71 213.761 73.2386 216 76 216Z" fill="#F55656"/>
<path d="M234 230C236.761 230 239 227.761 239 225C239 222.239 236.761 220 234 220C231.239 220 229 222.239 229 225C229 227.761 231.239 230 234 230Z" fill="#E6E6E6"/>
<path d="M190 52C192.761 52 195 49.7614 195 47C195 44.2386 192.761 42 190 42C187.239 42 185 44.2386 185 47C185 49.7614 187.239 52 190 52Z" fill="#CCCCCC"/>
<path d="M1.01675 106.977C6.25226 107.306 11.3351 108.872 15.8486 111.546C20.3621 114.219 24.1777 117.924 26.9828 122.357C27.7689 123.614 28.7951 124.995 28.2509 126.542C28.0613 127.135 27.6761 127.646 27.1583 127.992C26.6405 128.338 26.0207 128.498 25.4002 128.446C24.6266 128.279 23.9293 127.863 23.4158 127.261C22.9023 126.659 22.6011 125.904 22.5588 125.114C22.5165 124.324 22.7353 123.542 23.1815 122.888C23.6277 122.235 24.2766 121.746 25.028 121.498C28.6591 119.949 32.3226 122.343 35.2804 124.253C42.02 128.606 49.4329 132.543 57.5994 133.039C65.1553 133.498 73.2579 130.535 77.4606 123.983C78.1959 122.836 76.3703 121.777 75.6386 122.918C71.4706 129.416 63.0445 131.75 55.7182 130.746C51.3522 130.057 47.1365 128.625 43.2535 126.514C41.2398 125.469 39.2868 124.31 37.3732 123.092C35.5523 121.822 33.6223 120.715 31.6058 119.786C28.2428 118.405 23.7907 118.513 21.4416 121.693C19.25 124.661 20.9437 129.601 24.6092 130.435C25.4133 130.593 26.2442 130.55 27.0273 130.308C27.8105 130.067 28.5214 129.635 29.0965 129.051C29.6715 128.467 30.0926 127.749 30.3221 126.962C30.5516 126.176 30.5822 125.344 30.4113 124.543C30.0456 122.795 28.7298 121.085 27.7113 119.657C24.6512 115.352 20.6643 111.789 16.0444 109.229C11.4244 106.669 6.28908 105.178 1.01663 104.867C-0.340645 104.799 -0.336982 106.91 1.01675 106.977Z" fill="#CCCCCC"/>
<path d="M296.728 170.848C293.22 168.589 290.297 165.531 288.199 161.925C286.101 158.319 284.887 154.267 284.657 150.101C284.598 148.923 284.421 147.566 285.398 146.703C285.76 146.364 286.226 146.159 286.719 146.119C287.213 146.08 287.705 146.209 288.116 146.486C288.589 146.901 288.912 147.461 289.035 148.078C289.158 148.695 289.075 149.336 288.798 149.901C288.521 150.466 288.066 150.925 287.503 151.205C286.939 151.486 286.299 151.574 285.681 151.455C282.559 151.123 280.943 148.041 279.629 145.568C276.636 139.932 273.014 134.325 267.534 130.815C262.465 127.567 255.689 126.484 250.23 129.405C249.275 129.916 250.133 131.36 251.083 130.851C256.497 127.954 263.253 129.599 267.952 133.136C270.717 135.307 273.09 137.935 274.968 140.907C275.962 142.413 276.869 143.975 277.726 145.562C278.498 147.151 279.409 148.667 280.45 150.094C282.25 152.357 285.383 154.008 288.248 152.71C288.886 152.379 289.438 151.904 289.86 151.323C290.282 150.741 290.562 150.068 290.677 149.359C290.793 148.65 290.741 147.923 290.525 147.238C290.31 146.552 289.937 145.926 289.436 145.411C288.939 144.989 288.346 144.697 287.708 144.561C287.07 144.426 286.409 144.45 285.783 144.633C285.158 144.815 284.587 145.151 284.123 145.608C283.658 146.065 283.315 146.631 283.123 147.254C282.828 148.719 282.822 150.227 283.104 151.694C283.561 155.87 284.948 159.89 287.165 163.458C289.381 167.027 292.37 170.053 295.91 172.313C296.827 172.886 297.642 171.419 296.728 170.848Z" fill="#CCCCCC"/>
<path d="M124.192 32.4056C120.028 32.1433 115.985 30.8979 112.395 28.7715C108.805 26.6451 105.771 23.6983 103.54 20.1725C102.914 19.173 102.098 18.0746 102.531 16.8444C102.682 16.3726 102.988 15.966 103.4 15.691C103.812 15.4159 104.305 15.2887 104.798 15.3301C105.413 15.4626 105.968 15.7938 106.377 16.2727C106.785 16.7516 107.024 17.3515 107.058 17.98C107.092 18.6085 106.918 19.2306 106.563 19.7504C106.208 20.2702 105.692 20.6588 105.094 20.8562C102.206 22.0881 99.2925 20.1843 96.94 18.6648C91.5797 15.2027 85.6838 12.0716 79.1886 11.6771C73.179 11.3121 66.7347 13.6684 63.3921 18.8798C62.8073 19.7916 64.2593 20.6341 64.8412 19.7268C68.1562 14.5583 74.8578 12.7021 80.6848 13.5009C84.1572 14.0489 87.5103 15.1872 90.5986 16.8667C92.2002 17.6979 93.7535 18.6193 95.2754 19.5878C96.7237 20.5984 98.2588 21.4784 99.8626 22.2175C102.537 23.3162 106.078 23.2304 107.947 20.7007C108.343 20.1012 108.593 19.4173 108.678 18.7037C108.763 17.9901 108.68 17.2666 108.435 16.591C108.19 15.9153 107.791 15.3063 107.268 14.8127C106.746 14.319 106.116 13.9544 105.427 13.748C104.788 13.6219 104.127 13.6565 103.504 13.8487C102.881 14.0408 102.316 14.3846 101.858 14.849C101.401 15.3135 101.066 15.8842 100.884 16.51C100.701 17.1357 100.677 17.797 100.813 18.4345C101.269 19.8571 101.998 21.177 102.96 22.3203C105.394 25.7442 108.565 28.5784 112.239 30.6143C115.914 32.6502 119.998 33.8358 124.192 34.0838C125.271 34.1372 125.268 32.4589 124.192 32.4056Z" fill="#CCCCCC"/>
<path d="M128 85.5715H123V102H128V85.5715Z" fill="#CCCCCC"/>
<path d="M47.157 74.1067L50.6318 70.6318L39.2144 59.2144L35.7395 62.6893L47.157 74.1067Z" fill="#B3B3B3"/>
<path d="M187.74 108.632L191.214 112.107L202.632 100.689L199.157 97.2144L187.74 108.632Z" fill="#B3B3B3"/>
<path d="M45.7395 250.632L49.2144 254.107L60.6318 242.689L57.1569 239.214L45.7395 250.632Z" fill="#FF6584"/>
</g>
<defs>
<clipPath id="clip0_88_235">
<rect width="297.128" height="482.027" fill="white"/>
</clipPath>
</defs>
</svg>
