<svg width="502" height="378" viewBox="0 0 502 378" fill="none" xmlns="http://www.w3.org/2000/svg">
<path d="M105.606 165.163L93.3721 164.377L80.6062 275.94H120.766L121.298 202.608C122.294 189.104 116.714 175.791 105.606 165.163Z" fill="#77C8D6"/>
<path d="M207.085 195.887C207.084 189.285 203.793 182.924 197.862 178.061C191.932 173.199 183.793 170.189 175.057 169.628L169.4 169.25C173.336 175.876 178.592 190.572 178.295 221.621V275.936H207.075L207.085 195.887Z" fill="#77C8D6"/>
<path d="M169.4 169.264L105.606 165.163C116.707 175.785 122.286 189.089 121.298 202.585L120.741 275.94H178.305V221.625C178.591 190.587 173.336 175.891 169.4 169.264Z" fill="#3B1534"/>
<path d="M186.242 155.736L117.829 151.767C112.712 151.472 107.961 149.658 104.62 146.724C101.279 143.791 99.6216 139.979 100.013 136.125L102.86 108.218C103.14 105.475 104.134 102.801 105.787 100.348C107.44 97.8945 109.718 95.7105 112.491 93.9203C115.265 92.1301 118.48 90.7689 121.952 89.9143C125.425 89.0598 129.086 88.7286 132.729 88.9397L171.182 91.1548C174.011 91.3168 176.77 91.8973 179.301 92.8629C181.832 93.8286 184.086 95.1605 185.932 96.7825C187.779 98.4045 189.183 100.285 190.064 102.316C190.945 104.347 191.285 106.488 191.066 108.618L186.242 155.736Z" fill="#F2EADA"/>
<path d="M86.5096 153.729C97.813 153.729 106.976 147.709 106.976 140.283C106.976 132.858 97.813 126.838 86.5096 126.838C75.2063 126.838 66.0431 132.858 66.0431 140.283C66.0431 147.709 75.2063 153.729 86.5096 153.729Z" fill="#F2EADA"/>
<path d="M315.301 238.575L291.09 236.208L300.467 189.049C301.476 183.969 304.782 179.308 309.827 175.851C314.872 172.394 321.347 170.355 328.157 170.077L315.301 238.575Z" fill="#77C8D6"/>
<path d="M339.648 265.881L327.741 271.982C322.838 274.497 317.325 276.259 311.518 277.168C305.71 278.078 299.722 278.116 293.894 277.282C288.067 276.448 282.515 274.758 277.555 272.307C272.596 269.857 268.326 266.695 264.991 263.001L226.442 220.314C224.982 218.698 223.959 216.881 223.431 214.967C222.904 213.053 222.882 211.08 223.367 209.16C223.853 207.24 224.835 205.411 226.26 203.777C227.684 202.143 229.522 200.736 231.668 199.637L248.234 191.158C250.379 190.058 252.792 189.287 255.333 188.89C257.875 188.492 260.495 188.475 263.045 188.84C265.595 189.205 268.025 189.945 270.195 191.017C272.365 192.09 274.234 193.473 275.693 195.09L339.648 265.881Z" fill="#77C8D6"/>
<path d="M257.687 188.622C257.687 188.622 258.66 180.147 248.932 168.24C245.573 163.53 242.295 158.79 238.937 154.084C236.035 150.005 233.415 144.819 229.108 141.463C226.598 139.49 222.391 137.426 219.329 142.136C218.094 140.744 216.856 139.358 215.614 137.978C214.178 136.356 211.723 134.383 208.882 134.674C203.034 135.263 206.001 141.686 207.276 144.173C207.512 144.77 207.743 145.367 207.979 145.961C207.979 145.961 200.865 142.797 200.639 147.772C200.606 148.887 200.901 149.995 201.503 151.015L211.844 169.038C211.844 169.038 191.448 171.491 185.288 173.487C184.902 173.612 184.51 173.729 184.113 173.827C182.793 174.163 179.631 175.207 179.671 177.475C179.713 178.323 180.186 179.126 180.992 179.719C181.799 180.312 182.876 180.649 184.003 180.661C185.675 180.695 188.19 180.506 191.95 179.803C193.928 179.425 195.921 179.119 197.918 178.832L201.829 178.265C204.091 177.92 206.44 178.121 208.541 178.839C216.849 181.765 214.806 190.368 210.278 194.84C208.636 196.462 206.764 197.943 205.167 199.595C203.661 201.153 201.653 202.702 201.287 204.683C201.082 205.597 201.361 206.535 202.065 207.295C202.594 207.831 203.334 208.227 204.178 208.429C206.161 208.849 208.194 207.749 209.49 207.008C218.335 202.041 219.259 201.24 221.231 200.926C224.159 200.488 227.198 200.853 229.8 201.954L257.687 188.622Z" fill="#F985BF"/>
<path d="M232.426 167.023C232.426 167.023 224.033 180.828 241.196 187.435" stroke="#3B1534" stroke-width="5" stroke-miterlimit="10" stroke-linecap="round"/>
<path d="M219.329 142.147L229.017 158.155" stroke="#3B1534" stroke-width="5" stroke-miterlimit="10" stroke-linecap="round"/>
<path d="M208.054 146.048C211.511 151.438 214.972 156.827 218.435 162.215" stroke="#3B1534" stroke-width="5" stroke-miterlimit="10" stroke-linecap="round"/>
<path d="M195.157 182.102H159.079C156.301 182.102 154.049 183.797 154.049 185.889V209.163C154.049 211.254 156.301 212.95 159.079 212.95H195.157C197.936 212.95 200.188 211.254 200.188 209.163V185.889C200.188 183.797 197.936 182.102 195.157 182.102Z" fill="#F2EADA"/>
<path d="M160.871 205.632C160.931 206.179 161.263 206.689 161.799 207.061C162.336 207.433 163.038 207.639 163.767 207.639C164.496 207.639 165.199 207.433 165.735 207.061C166.272 206.689 166.603 206.179 166.664 205.632V197.35H160.871V205.632Z" stroke="#77C8D6" stroke-width="5" stroke-miterlimit="10" stroke-linecap="round"/>
<path d="M166.664 189.408C166.664 188.828 166.358 188.271 165.813 187.861C165.268 187.45 164.528 187.22 163.757 187.22C162.987 187.22 162.247 187.45 161.702 187.861C161.157 188.271 160.851 188.828 160.851 189.408V195.456H166.664V189.408Z" stroke="#77C8D6" stroke-width="5" stroke-miterlimit="10" stroke-linecap="round"/>
<path d="M180.183 189.408C180.183 188.828 179.877 188.271 179.332 187.861C178.787 187.45 178.047 187.22 177.276 187.22C176.505 187.22 175.766 187.45 175.221 187.861C174.676 188.271 174.37 188.828 174.37 189.408V195.456H180.183V189.408Z" stroke="#77C8D6" stroke-width="5" stroke-miterlimit="10" stroke-linecap="round"/>
<path d="M174.37 205.632C174.37 206.213 174.676 206.769 175.221 207.18C175.766 207.59 176.505 207.821 177.276 207.821C178.047 207.821 178.787 207.59 179.332 207.18C179.877 206.769 180.183 206.213 180.183 205.632V197.35H174.37V205.632Z" stroke="#77C8D6" stroke-width="5" stroke-miterlimit="10" stroke-linecap="round"/>
<path d="M193.687 189.408C193.687 188.828 193.38 188.271 192.835 187.861C192.29 187.45 191.551 187.22 190.78 187.22C190.009 187.22 189.27 187.45 188.725 187.861C188.18 188.271 187.874 188.828 187.874 189.408V195.456H193.687V189.408Z" stroke="#77C8D6" stroke-width="5" stroke-miterlimit="10" stroke-linecap="round"/>
<path d="M187.874 205.632C187.874 206.213 188.18 206.769 188.725 207.18C189.27 207.59 190.009 207.821 190.78 207.821C191.551 207.821 192.29 207.59 192.835 207.18C193.38 206.769 193.687 206.213 193.687 205.632V197.35H187.874V205.632Z" stroke="#77C8D6" stroke-width="5" stroke-miterlimit="10" stroke-linecap="round"/>
<path d="M167.954 194.534H159.606V198.326H167.954V194.534Z" fill="#FFB6DB"/>
<path d="M181.443 194.534H173.105V198.326H181.443V194.534Z" fill="#FFB6DB"/>
<path d="M194.937 194.534H186.608V198.326H194.937V194.534Z" fill="#FFB6DB"/>
<path d="M386.957 151.676L381.736 152.134L374.738 106.857L400.737 104.589L405.32 134.224C405.956 138.372 404.379 142.54 400.936 145.812C397.492 149.085 392.464 151.194 386.957 151.676Z" fill="#3B1534"/>
<path d="M481.43 167.346C488.868 158.996 477.135 143.257 455.224 132.191C433.313 121.126 409.521 118.924 402.084 127.274C394.647 135.624 406.38 151.363 428.29 162.429C450.201 173.495 473.993 175.696 481.43 167.346Z" fill="#3B1534"/>
<path d="M387.81 157.146L332.379 160.85C330.471 160.98 328.548 160.825 326.72 160.394C324.892 159.964 323.195 159.265 321.726 158.34C320.257 157.414 319.045 156.279 318.16 155C317.274 153.721 316.733 152.323 316.566 150.886L312.299 114.719L382.258 110.043L387.81 157.146Z" fill="#F985BF"/>
<path d="M384.944 137.664C392.113 137.664 397.925 133.287 397.925 127.889C397.925 122.49 392.113 118.114 384.944 118.114C377.774 118.114 371.962 122.49 371.962 127.889C371.962 133.287 377.774 137.664 384.944 137.664Z" fill="#F985BF"/>
<path d="M384.457 132.194C386.611 132.194 388.357 130.879 388.357 129.257C388.357 127.635 386.611 126.32 384.457 126.32C382.302 126.32 380.556 127.635 380.556 129.257C380.556 130.879 382.302 132.194 384.457 132.194Z" stroke="#3B1534" stroke-width="5" stroke-miterlimit="10" stroke-linecap="round"/>
<path d="M389.331 123.606C389.331 123.606 382.152 124.362 380.978 127.957" stroke="#3B1534" stroke-width="5" stroke-miterlimit="10" stroke-linecap="round"/>
<path d="M333.152 147.968C333.152 147.968 337.193 150.931 342.62 147.329" stroke="#3B1534" stroke-width="5" stroke-miterlimit="10" stroke-linecap="round"/>
<path d="M412.142 189.661C412.363 184.192 413.352 176.035 421.012 169.087C423.412 166.906 429.697 164.929 431.499 163.999C422.021 164.351 407.975 165.023 398.216 165.511C397.517 167.643 396.818 169.775 396.118 171.907C392.017 184.381 390.33 200.552 370.762 204.649C356.756 207.579 340.722 201.115 341.42 189.208C341.716 184.18 343.93 179.38 345.542 174.56C346.209 172.595 346.827 170.618 347.434 168.637C340.818 169.121 334.272 169.625 327.796 170.149L310.005 211.48C310.005 211.48 304.483 228.323 310.005 242.68L321.752 280.597L420.008 282.551C421.996 268.58 423.986 254.609 425.977 240.639L414.08 203.269C412.616 198.821 411.964 194.243 412.142 189.661Z" fill="#F2EADA"/>
<path d="M341.43 189.208C340.733 201.115 356.766 207.579 370.772 204.649C390.35 200.552 392.027 184.381 396.128 171.907C396.824 169.775 397.524 167.643 398.227 165.511C391.995 165.826 385.708 166.168 379.366 166.536C368.547 167.171 357.906 167.871 347.444 168.637C346.837 170.618 346.219 172.595 345.552 174.561C343.92 179.395 341.727 184.181 341.43 189.208Z" fill="#77C8D6"/>
<path d="M319.523 251.347C319.076 251.347 318.647 251.214 318.33 250.975C318.014 250.737 317.836 250.414 317.836 250.077V246.104H321.21V250.077C321.21 250.244 321.167 250.41 321.083 250.564C320.998 250.718 320.874 250.858 320.717 250.976C320.56 251.094 320.374 251.188 320.169 251.252C319.964 251.315 319.745 251.348 319.523 251.347Z" fill="#FFB6DB"/>
<path d="M323.258 224.105C323.257 223.359 322.863 222.644 322.162 222.117C321.462 221.59 320.513 221.293 319.523 221.292C318.533 221.293 317.584 221.59 316.883 222.117C316.183 222.644 315.789 223.359 315.788 224.105V240.45H323.258V224.105Z" fill="#3B1534"/>
<path d="M315.788 240.45V244.846C315.788 245.18 315.964 245.5 316.278 245.736C316.591 245.972 317.016 246.105 317.46 246.105H321.591C321.81 246.105 322.028 246.072 322.23 246.009C322.433 245.945 322.617 245.853 322.771 245.736C322.926 245.619 323.049 245.48 323.132 245.327C323.216 245.175 323.259 245.011 323.258 244.846V240.45H315.788Z" fill="#FFB6DB"/>
<path d="M358.277 279.822V237.891" stroke="#3B1534" stroke-width="5" stroke-miterlimit="10" stroke-linecap="round"/>
<path d="M382.936 230.864L367.464 212.387C366.36 211.041 364.785 209.95 362.911 209.235C360.858 208.479 358.172 208.036 355.637 209.359C355.637 209.359 349.146 204.823 343.499 207.45C343.499 207.45 336.471 204.733 331.154 208.04C328.75 209.552 326.325 211.022 323.745 212.345L314.754 216.946C314.754 216.946 310.823 218.688 313.921 220.832C313.921 220.832 315.427 222.068 320.407 220.525C321.295 220.246 322.184 219.966 323.087 219.709L329.056 218.023C330.095 217.728 331.237 217.708 332.293 217.966C333.35 218.225 334.258 218.746 334.869 219.444C335.46 220.117 335.85 220.879 336.011 221.677C336.172 222.474 336.101 223.289 335.803 224.064C335.504 224.839 334.986 225.555 334.283 226.164C333.58 226.773 332.709 227.26 331.732 227.59C330.878 227.874 329.985 228.161 329.066 228.433C325.63 229.452 322.02 230.098 318.343 230.353C316.391 230.489 313.67 230.841 311.873 231.737C311.377 231.992 310.977 232.339 310.71 232.743C310.443 233.148 310.318 233.598 310.347 234.049C310.377 234.501 310.559 234.939 310.877 235.322C311.195 235.705 311.638 236.021 312.164 236.239C314.286 237.154 316.656 237.697 319.096 237.826C325.829 238.197 332.342 239.791 338.077 242.472C345.652 245.953 355.516 249.654 361.355 248.52L382.936 230.864Z" fill="#F985BF"/>
<path d="M343.494 207.45L355.035 220.555" stroke="#3B1534" stroke-width="5" stroke-miterlimit="10" stroke-linecap="round"/>
<path d="M355.632 209.359L361.309 215.653" stroke="#3B1534" stroke-width="5" stroke-miterlimit="10" stroke-linecap="round"/>
<path d="M484.053 264.815C483.627 265.39 473.863 278.045 454.315 278.386C447.953 278.478 441.678 277.263 436.163 274.872C430.649 272.481 426.104 269.005 423.015 264.815C419.317 241.329 415.619 217.841 411.921 194.352C407.835 180.257 415.551 166.165 434.27 163.092C437.749 162.597 446.584 161.724 455.796 165.148C472.417 171.328 474.822 185.761 474.987 186.902C479.792 210.716 479.957 240.238 484.761 264.041C484.796 264.213 484.742 264.389 484.611 264.533C484.479 264.677 484.28 264.778 484.053 264.815Z" fill="#77C8D6"/>
<path d="M451.659 290.278C437.207 293.109 421.821 290.845 409.532 284.453L363.348 260.427C358.428 257.868 356.852 253.109 359.718 249.465L375.536 229.268C378.367 225.658 384.602 224.298 390.004 226.108L475.69 254.836C479.446 256.102 482.384 258.436 483.86 261.329C485.336 264.221 485.23 267.436 483.567 270.27C477.497 280.548 465.555 287.556 451.659 290.278Z" fill="#77C8D6"/>
<path d="M344.954 270.425C346.912 270.425 348.498 269.23 348.498 267.756C348.498 266.282 346.912 265.087 344.954 265.087C342.997 265.087 341.41 266.282 341.41 267.756C341.41 269.23 342.997 270.425 344.954 270.425Z" fill="#3B1534"/>
<path d="M344.954 252.107C346.912 252.107 348.498 250.912 348.498 249.438C348.498 247.964 346.912 246.77 344.954 246.77C342.997 246.77 341.41 247.964 341.41 249.438C341.41 250.912 342.997 252.107 344.954 252.107Z" fill="#3B1534"/>
<path d="M170.539 163.175L117.152 156.492L124.3 114.474C124.496 113.325 124.993 112.216 125.762 111.213C126.532 110.21 127.559 109.333 128.784 108.632C130.008 107.931 131.406 107.42 132.895 107.13C134.384 106.839 135.935 106.775 137.458 106.94L182.828 111.888C184.945 112.118 186.869 112.943 188.211 114.196C189.554 115.45 190.217 117.04 190.067 118.647L186.834 153.491C186.694 154.958 186.149 156.386 185.235 157.686C184.32 158.986 183.056 160.127 181.523 161.039C179.99 161.95 178.221 162.61 176.33 162.978C174.439 163.346 172.467 163.413 170.539 163.175Z" fill="#F985BF"/>
<path d="M159.259 150.988L118.894 146.736L116.258 160.907L156.574 165.439L159.259 150.988Z" fill="#F985BF"/>
<path d="M116.258 160.907L115.028 167.518L155.394 171.771L156.574 165.439L116.258 160.907Z" fill="#3B1534"/>
<path d="M130.881 173.018L132.824 163.693" stroke="#77C8D6" stroke-width="5" stroke-miterlimit="10" stroke-linecap="round"/>
<path d="M143.356 174.488L145.299 165.163" stroke="#77C8D6" stroke-width="5" stroke-miterlimit="10" stroke-linecap="round"/>
<path d="M146.002 114.98L182.236 118.405" stroke="#3B1534" stroke-width="5" stroke-miterlimit="10" stroke-linecap="round"/>
<path d="M150.203 120.858L176.895 123.081" stroke="#3B1534" stroke-width="5" stroke-miterlimit="10" stroke-linecap="round"/>
<path d="M119.652 137.656C126.081 137.656 131.293 133.732 131.293 128.89C131.293 124.049 126.081 120.125 119.652 120.125C113.222 120.125 108.01 124.049 108.01 128.89C108.01 133.732 113.222 137.656 119.652 137.656Z" fill="#F985BF"/>
<path d="M160.489 147.22C160.489 147.22 164.033 150.803 169.962 148.195" stroke="#3B1534" stroke-width="5" stroke-miterlimit="10" stroke-linecap="round"/>
<path d="M156.122 139.225C156.122 139.225 148.778 146.105 153.612 154.98" stroke="#3B1534" stroke-width="5" stroke-miterlimit="10" stroke-linecap="round"/>
<path d="M176.769 141.448C178.53 144.704 178.761 148.316 177.422 151.684C176.596 153.657 175.227 155.477 173.406 157.025" stroke="#3B1534" stroke-width="5" stroke-miterlimit="10" stroke-linecap="round"/>
<path d="M121.298 132.712C123.452 132.712 125.199 131.397 125.199 129.775C125.199 128.153 123.452 126.838 121.298 126.838C119.144 126.838 117.398 128.153 117.398 129.775C117.398 131.397 119.144 132.712 121.298 132.712Z" stroke="#3B1534" stroke-width="5" stroke-miterlimit="10" stroke-linecap="round"/>
<path d="M116.429 124.105C116.429 124.105 123.602 124.861 124.782 128.456" stroke="#3B1534" stroke-width="5" stroke-miterlimit="10" stroke-linecap="round"/>
<path d="M84.7426 249.041C79.6222 259.762 66.1987 266.872 51.6106 266.739C35.4914 266.592 21.2145 257.622 17.9264 245.193L21.4404 210.833C22.1122 204.226 24.5057 197.784 28.4842 191.873C32.4627 185.963 37.9484 180.701 44.6279 176.387C51.3074 172.073 59.05 168.792 67.4136 166.731C75.7771 164.671 84.5978 163.871 93.372 164.377L84.7426 249.041Z" fill="#77C8D6"/>
<path d="M152.809 284.581C152.763 285.757 152.125 286.875 151.024 287.71C149.923 288.545 148.441 289.033 146.88 289.075L63.0713 291.396C56.5963 291.6 50.1375 290.767 44.1208 288.954C34.5263 286.034 26.6264 280.636 21.837 273.729C18.1019 268.25 16.4317 262.106 17.0078 255.963C17.3425 252.183 17.6771 248.403 18.0118 244.623L148.226 253.01C149.801 253.105 151.267 253.652 152.322 254.537C153.377 255.423 153.939 256.58 153.893 257.769L152.809 284.581Z" fill="#77C8D6"/>
<path d="M137.904 256.651V284.668" stroke="#3B1534" stroke-width="5" stroke-miterlimit="10" stroke-linecap="round"/>
<path d="M153.527 256.107C153.527 256.107 188.466 254.549 210.725 257.645C212.938 257.951 215.147 258.272 217.376 258.522C220.519 258.877 226.166 260.178 226.271 264.925C228.369 265.032 230.405 265.503 232.22 266.301C233.098 266.693 233.854 267.223 234.436 267.854C235.018 268.486 235.413 269.204 235.594 269.96C235.797 270.76 235.696 271.587 235.302 272.345C234.057 274.674 229.971 276.065 225.905 275.033C226.748 277.165 226.02 278.435 225.719 278.877C223.997 281.38 219.033 281.75 216.422 281.829C214.997 281.872 213.569 281.836 212.15 281.724L191.844 280.174C191.844 280.174 194.691 285.791 183.782 285.303C182.693 285.258 181.604 285.205 180.514 285.182L152.789 284.57L153.527 256.107Z" fill="#F985BF"/>
<path d="M194.836 262.759C200.613 263.168 206.392 263.571 212.175 263.969C216.861 264.289 221.559 264.608 226.272 264.925" stroke="#3B1534" stroke-width="5" stroke-miterlimit="10" stroke-linecap="round"/>
<path d="M194.922 271.691C199.359 271.969 203.951 272.33 208.697 272.776C214.721 273.355 220.468 274.039 225.925 274.791" stroke="#3B1534" stroke-width="5" stroke-miterlimit="10" stroke-linecap="round"/>
<path d="M176.704 278.934C178.501 279.07 180.308 279.213 182.121 279.357C185.387 279.622 188.63 279.897 191.849 280.185" stroke="#3B1534" stroke-width="5" stroke-miterlimit="10" stroke-linecap="round"/>
<path d="M107.418 241.41C109.633 241.41 111.429 240.057 111.429 238.389C111.429 236.721 109.633 235.369 107.418 235.369C105.203 235.369 103.407 236.721 103.407 238.389C103.407 240.057 105.203 241.41 107.418 241.41Z" fill="#3B1534"/>
<path d="M89.4866 212.285L84.7427 249.041" stroke="#3B1534" stroke-width="5" stroke-miterlimit="10" stroke-linecap="round"/>
<path d="M402.509 116.878L326.606 121.954C321.65 122.285 316.723 121.119 312.908 118.715C309.092 116.311 306.701 112.864 306.26 109.132L306.009 107.023C305.57 103.291 307.118 99.5812 310.311 96.7083C313.504 93.8354 318.081 92.0349 323.037 91.7027L373.428 88.3348C376.779 88.1094 380.156 88.3835 383.366 89.1414C386.576 89.8993 389.556 91.1262 392.136 92.752C394.716 94.3777 396.845 96.3704 398.402 98.6161C399.959 100.862 400.912 103.317 401.208 105.84L402.509 116.878Z" fill="#3B1534"/>
<path d="M452.779 247.677L418.994 236.405" stroke="#3B1534" stroke-width="5" stroke-miterlimit="10" stroke-linecap="round"/>
<path d="M387.664 154.704L346.871 157.429L348.29 169.474L389.083 166.748L387.664 154.704Z" fill="#F985BF"/>
<path d="M347.188 159.894L368.312 158.129C368.565 158.112 368.817 158.163 369.023 158.274C369.229 158.384 369.376 158.547 369.436 158.732C369.497 158.917 369.468 159.112 369.354 159.283C369.24 159.453 369.048 159.587 368.814 159.66L347.921 166.316L347.188 159.894Z" fill="#3B1534"/>
<path d="M295.01 216.484L303.715 226.12" stroke="#3B1534" stroke-width="5" stroke-miterlimit="10" stroke-linecap="round"/>
<path d="M121.414 251.374L59.9137 247.677" stroke="#3B1534" stroke-width="5" stroke-miterlimit="10" stroke-linecap="round"/>
<path d="M100.586 130.527C100.586 130.527 106.414 134.02 106.805 138.598" stroke="#3B1534" stroke-width="5" stroke-miterlimit="10" stroke-linecap="round"/>
<path d="M157.302 161.519L156.574 165.439L136.494 159.739C136.365 159.705 136.257 159.635 136.194 159.544C136.13 159.453 136.114 159.347 136.15 159.247C136.185 159.148 136.269 159.062 136.385 159.008C136.501 158.953 136.641 158.933 136.775 158.953L157.302 161.519Z" fill="#3B1534"/>
</svg>
