<svg width="560" height="549" viewBox="0 0 560 549" fill="none" xmlns="http://www.w3.org/2000/svg">
<path d="M424.407 200.973L280.672 220.737C255.052 224.261 235.777 244.635 234.92 269.104L228.194 461.16H346.735L374.018 365.211C390.815 310.458 407.611 255.712 424.407 200.973Z" fill="#F2EADA"/>
<path d="M448.666 197.64L424.407 200.978C407.607 255.713 390.807 310.45 374.007 365.189C370.126 391.942 383.236 417.696 405.563 428.824C432.958 442.472 469.896 431.937 487.491 402.345C491.764 387.923 497.42 368.467 503.843 345.332C515.396 303.707 517.614 292.683 518.308 278.727C519.534 254.022 520.481 233.001 506.117 216.69C487.866 195.878 456.361 197.129 448.666 197.64Z" fill="#F2EADA"/>
<path d="M372.96 185.074H362.673V99.9785H403.245V155.367C403.248 159.268 402.468 163.131 400.947 166.736C399.427 170.34 397.197 173.616 394.384 176.375C391.571 179.134 388.231 181.322 384.555 182.815C380.879 184.307 376.939 185.075 372.96 185.074Z" fill="#BD4632"/>
<path d="M242.15 458.519L229.04 463.235C216.687 467.682 203.039 467.136 191.097 461.717C179.155 456.299 169.898 446.451 165.362 434.341L123.06 321.363C121.208 316.421 120.367 311.171 120.585 305.911C120.803 300.65 122.076 295.484 124.332 290.707C126.587 285.929 129.781 281.634 133.73 278.067C137.679 274.499 142.306 271.73 147.347 269.916L176.826 259.304C181.866 257.488 187.222 256.663 192.587 256.877C197.953 257.091 203.223 258.339 208.096 260.551C212.969 262.762 217.35 265.892 220.989 269.764C224.628 273.635 227.453 278.172 229.303 283.114L271.6 396.093C276.137 408.2 275.583 421.578 270.06 433.284C264.538 444.991 254.498 454.068 242.15 458.519Z" fill="#F2EADA"/>
<path d="M381.634 214.923C371.064 222.14 358.758 226.534 345.929 227.67C338.644 228.273 331.309 227.788 324.173 226.232C320.925 210.362 317.675 194.493 314.423 178.623L371.885 167.319L381.634 214.923Z" fill="#F985BF"/>
<path d="M318.046 196.317L352.302 189.405C352.61 189.345 352.93 189.391 353.208 189.536C353.485 189.682 353.703 189.916 353.824 190.201C353.945 190.486 353.961 190.803 353.87 191.098C353.78 191.393 353.587 191.649 353.326 191.821L321.373 212.573L318.046 196.317Z" fill="#3B1534"/>
<path d="M370.44 105.677L344.154 106.166L309.12 106.814L291.598 107.143L282.839 107.302C281.63 107.302 279.367 106.929 278.27 107.385C277.172 107.84 277.553 109.251 277.525 110.486C277.189 125.079 276.64 139.693 276.287 154.302L276.035 182.927C276.035 182.998 276.035 183.07 276.035 183.141C275.94 185.711 276.44 188.268 277.497 190.621C278.554 192.974 280.142 195.061 282.14 196.727C284.138 198.392 286.496 199.592 289.035 200.236C291.574 200.88 294.229 200.952 296.8 200.446L324.24 195.06L375.631 184.667C373.91 158.337 372.18 132.007 370.44 105.677Z" fill="#F985BF"/>
<path d="M336.174 133.517L364.51 121.439" stroke="#3B1534" stroke-width="5" stroke-miterlimit="10" stroke-linecap="round"/>
<path d="M345.699 167.676L369.398 147.555" stroke="#3B1534" stroke-width="5" stroke-miterlimit="10" stroke-linecap="round"/>
<path d="M375.642 123.711H356.16C352.001 123.711 348.013 122.092 345.073 119.209C342.132 116.326 340.48 112.416 340.48 108.339V98.9351H375.637L375.642 123.711Z" fill="#BD4632"/>
<path d="M373.778 150.119C383.13 150.119 390.712 142.686 390.712 133.517C390.712 124.348 383.13 116.915 373.778 116.915C364.425 116.915 356.843 124.348 356.843 133.517C356.843 142.686 364.425 150.119 373.778 150.119Z" fill="#F985BF"/>
<path d="M373.1 140.774C376.103 140.774 378.538 138.388 378.538 135.444C378.538 132.499 376.103 130.113 373.1 130.113C370.097 130.113 367.662 132.499 367.662 135.444C367.662 138.388 370.097 140.774 373.1 140.774Z" stroke="#3B1534" stroke-width="5" stroke-miterlimit="10" stroke-linecap="round"/>
<path d="M403.245 108.071H277.726V98.0842C277.726 89.1543 281.345 80.5902 287.786 74.2758C294.227 67.9614 302.962 64.4141 312.071 64.4141H368.9C378.009 64.4141 386.745 67.9614 393.185 74.2758C399.626 80.5902 403.245 89.1543 403.245 98.0842V108.071Z" fill="#77C8D6"/>
<path d="M379.887 125.172C379.887 125.172 369.891 126.561 368.25 133.066" stroke="#3B1534" stroke-width="5" stroke-miterlimit="10" stroke-linecap="round"/>
<path d="M397.958 287.313L374.018 365.184" stroke="#3B1534" stroke-width="5" stroke-miterlimit="10" stroke-linecap="round"/>
<path d="M309.456 227.434C315.924 234.835 322.56 238.266 327.096 240.012C347.486 247.753 373.615 238.881 393.613 218.052" stroke="#3B1534" stroke-width="5" stroke-miterlimit="10" stroke-linecap="round"/>
<path d="M475.031 88.3234C477.719 88.3234 479.898 86.1874 479.898 83.5525C479.898 80.9177 477.719 78.7817 475.031 78.7817C472.344 78.7817 470.165 80.9177 470.165 83.5525C470.165 86.1874 472.344 88.3234 475.031 88.3234Z" fill="#77C8D6"/>
<path d="M505.977 91.7652C508.664 91.7652 510.843 89.6293 510.843 86.9944C510.843 84.3596 508.664 82.2236 505.977 82.2236C503.289 82.2236 501.11 84.3596 501.11 86.9944C501.11 89.6293 503.289 91.7652 505.977 91.7652Z" fill="#77C8D6"/>
<path d="M526.372 116.926C529.06 116.926 531.238 114.79 531.238 112.155C531.238 109.52 529.06 107.384 526.372 107.384C523.684 107.384 521.506 109.52 521.506 112.155C521.506 114.79 523.684 116.926 526.372 116.926Z" fill="#77C8D6"/>
<path d="M524.244 143.569C526.932 143.569 529.11 141.433 529.11 138.798C529.11 136.163 526.932 134.027 524.244 134.027C521.556 134.027 519.378 136.163 519.378 138.798C519.378 141.433 521.556 143.569 524.244 143.569Z" fill="#77C8D6"/>
<path d="M499.632 161.187C502.32 161.187 504.498 159.051 504.498 156.416C504.498 153.781 502.32 151.645 499.632 151.645C496.944 151.645 494.766 153.781 494.766 156.416C494.766 159.051 496.944 161.187 499.632 161.187Z" fill="#77C8D6"/>
<path d="M468.255 157.744C470.943 157.744 473.122 155.608 473.122 152.973C473.122 150.339 470.943 148.203 468.255 148.203C465.568 148.203 463.389 150.339 463.389 152.973C463.389 155.608 465.568 157.744 468.255 157.744Z" fill="#77C8D6"/>
<path d="M448.605 134.302C451.292 134.302 453.471 132.166 453.471 129.531C453.471 126.896 451.292 124.76 448.605 124.76C445.917 124.76 443.738 126.896 443.738 129.531C443.738 132.166 445.917 134.302 448.605 134.302Z" fill="#77C8D6"/>
<path d="M452.2 104.711C454.888 104.711 457.066 102.575 457.066 99.9397C457.066 97.3049 454.888 95.1689 452.2 95.1689C449.512 95.1689 447.334 97.3049 447.334 99.9397C447.334 102.575 449.512 104.711 452.2 104.711Z" fill="#77C8D6"/>
<path d="M476.532 88.0928L497.7 152.035" stroke="#3B1534" stroke-width="5" stroke-miterlimit="10" stroke-linecap="round"/>
<path d="M504.274 91.458L470.702 148.85" stroke="#3B1534" stroke-width="5" stroke-miterlimit="10" stroke-linecap="round"/>
<path d="M456.305 102.828L519.596 137.387" stroke="#3B1534" stroke-width="5" stroke-miterlimit="10" stroke-linecap="round"/>
<path d="M521.59 113.028L453.354 128.499" stroke="#3B1534" stroke-width="5" stroke-miterlimit="10" stroke-linecap="round"/>
<path d="M488.415 143.064C501.417 143.064 511.958 132.73 511.958 119.984C511.958 107.237 501.417 96.9038 488.415 96.9038C475.413 96.9038 464.873 107.237 464.873 119.984C464.873 132.73 475.413 143.064 488.415 143.064Z" fill="#77C8D6"/>
<path d="M54.6504 349.339C57.338 349.339 59.5168 347.204 59.5168 344.569C59.5168 341.934 57.338 339.798 54.6504 339.798C51.9628 339.798 49.784 341.934 49.784 344.569C49.784 347.204 51.9628 349.339 54.6504 349.339Z" fill="#77C8D6"/>
<path d="M85.596 352.782C88.2836 352.782 90.4624 350.646 90.4624 348.011C90.4624 345.376 88.2836 343.24 85.596 343.24C82.9084 343.24 80.7296 345.376 80.7296 348.011C80.7296 350.646 82.9084 352.782 85.596 352.782Z" fill="#77C8D6"/>
<path d="M105.991 377.937C108.679 377.937 110.858 375.801 110.858 373.166C110.858 370.531 108.679 368.396 105.991 368.396C103.304 368.396 101.125 370.531 101.125 373.166C101.125 375.801 103.304 377.937 105.991 377.937Z" fill="#77C8D6"/>
<path d="M103.863 404.58C106.551 404.58 108.73 402.444 108.73 399.809C108.73 397.175 106.551 395.039 103.863 395.039C101.176 395.039 98.9968 397.175 98.9968 399.809C98.9968 402.444 101.176 404.58 103.863 404.58Z" fill="#77C8D6"/>
<path d="M79.2512 422.203C81.9388 422.203 84.1176 420.067 84.1176 417.432C84.1176 414.797 81.9388 412.661 79.2512 412.661C76.5636 412.661 74.3848 414.797 74.3848 417.432C74.3848 420.067 76.5636 422.203 79.2512 422.203Z" fill="#77C8D6"/>
<path d="M47.8744 418.761C50.562 418.761 52.7408 416.625 52.7408 413.99C52.7408 411.355 50.562 409.219 47.8744 409.219C45.1868 409.219 43.008 411.355 43.008 413.99C43.008 416.625 45.1868 418.761 47.8744 418.761Z" fill="#77C8D6"/>
<path d="M28.224 395.318C30.9116 395.318 33.0904 393.183 33.0904 390.548C33.0904 387.913 30.9116 385.777 28.224 385.777C25.5364 385.777 23.3576 387.913 23.3576 390.548C23.3576 393.183 25.5364 395.318 28.224 395.318Z" fill="#77C8D6"/>
<path d="M31.8192 365.727C34.5068 365.727 36.6856 363.591 36.6856 360.956C36.6856 358.322 34.5068 356.186 31.8192 356.186C29.1316 356.186 26.9528 358.322 26.9528 360.956C26.9528 363.591 29.1316 365.727 31.8192 365.727Z" fill="#77C8D6"/>
<path d="M56.1512 349.104L77.3192 413.051" stroke="#3B1534" stroke-width="5" stroke-miterlimit="10" stroke-linecap="round"/>
<path d="M83.8936 352.475L50.3216 409.867" stroke="#3B1534" stroke-width="5" stroke-miterlimit="10" stroke-linecap="round"/>
<path d="M35.924 363.844L99.2152 398.404" stroke="#3B1534" stroke-width="5" stroke-miterlimit="10" stroke-linecap="round"/>
<path d="M101.209 374.039L32.9728 389.515" stroke="#3B1534" stroke-width="5" stroke-miterlimit="10" stroke-linecap="round"/>
<path d="M68.0344 404.08C81.0365 404.08 91.5768 393.747 91.5768 381C91.5768 368.254 81.0365 357.92 68.0344 357.92C55.0323 357.92 44.492 368.254 44.492 381C44.492 393.747 55.0323 404.08 68.0344 404.08Z" fill="#77C8D6"/>
<path d="M149.346 271.985C149.346 271.985 142.548 292.15 151.183 304.854" stroke="#3B1534" stroke-width="5" stroke-miterlimit="10" stroke-linecap="round"/>
<path d="M169.518 267.912C176.212 277.749 179.195 289.568 177.951 301.33" stroke="#3B1534" stroke-width="5" stroke-miterlimit="10" stroke-linecap="round"/>
<path d="M247.811 270.36L241.707 316.224" stroke="#3B1534" stroke-width="5" stroke-miterlimit="10" stroke-linecap="round"/>
<path d="M157.534 198.107C155.574 198.008 153.614 197.997 151.654 197.997L53.3904 197.876C49.252 197.876 41.7256 197.59 39.2616 201.648C36.7136 205.842 39.4912 211.661 43.2936 214.017C47.3872 216.547 52.4944 216.723 57.3328 216.822L76.4568 217.212C75.2024 221.9 79.8168 226.375 84.6664 227.407C89.516 228.439 94.4888 227.22 99.4224 227.033C105.459 226.814 112.134 228.307 116.469 232.699C121.85 238.145 125.306 245.024 129.45 251.365C131.947 255.17 134.49 258.941 137.004 262.724C137.732 263.822 143.881 274.253 144.57 274.105L201.13 260.451C196.756 242.74 191.408 224.706 180.006 210.316C176.714 206.16 172.81 202.262 167.871 200.187C164.64 198.798 161.095 198.293 157.534 198.107Z" fill="#77C8D6"/>
<path d="M203.017 225.858H190.921V246.88H203.017V225.858Z" stroke="#3B1534" stroke-width="5" stroke-miterlimit="10" stroke-linecap="round"/>
<path d="M214.48 251.31C214.48 249.486 213.741 247.736 212.425 246.446C211.109 245.156 209.324 244.431 207.463 244.431H186.48C184.619 244.431 182.834 245.156 181.518 246.446C180.202 247.736 179.463 249.486 179.463 251.31V261.406H214.48V251.31Z" fill="#FFB6DB"/>
<path d="M214.469 261.406H179.474V339.414H214.469V261.406Z" fill="#3B1534"/>
<path d="M214.469 270.448H198.694" stroke="#F2EADA" stroke-width="5" stroke-miterlimit="10" stroke-linecap="round"/>
<path d="M214.469 282.406H198.694" stroke="#F2EADA" stroke-width="5" stroke-miterlimit="10" stroke-linecap="round"/>
<path d="M214.469 295.159H198.694" stroke="#F2EADA" stroke-width="5" stroke-miterlimit="10" stroke-linecap="round"/>
<path d="M196.969 225.858V198.667" stroke="#3B1534" stroke-width="5" stroke-miterlimit="10" stroke-linecap="round"/>
<path d="M195.104 183.223C195.18 183.169 195.248 183.104 195.306 183.031C195.376 182.943 195.429 182.842 195.462 182.735C197.372 176.46 197.002 167.56 197.002 167.56C196.801 162.652 196.627 159.649 194.824 156.498C194.36 155.577 193.578 154.848 192.618 154.439C189.616 153.243 187.751 157.113 187.354 159.38C186.301 165.419 188.328 171.294 190.529 176.882C190.854 177.728 193.648 184.135 195.104 183.223Z" fill="#77C8D6"/>
<path d="M200.323 191.387C200.415 191.406 200.511 191.406 200.603 191.387C200.717 191.365 200.826 191.326 200.928 191.272C206.702 187.978 212.649 181.247 212.649 181.247C215.925 177.536 217.896 175.208 218.809 171.722C219.108 170.739 219.046 169.684 218.635 168.741C217.28 165.853 213.22 167.429 211.355 168.823C206.354 172.529 203.739 178.156 201.443 183.707C201.04 184.53 198.626 191.052 200.323 191.387Z" fill="#77C8D6"/>
<path d="M206.578 331.739C206.578 331.739 195.574 333.347 189 283.745C189 283.745 187.27 262.235 176.047 268.999C176.047 268.999 170.229 271.92 174.014 302.828L177.072 321.714C177.072 321.714 176.898 322.021 176.613 322.581C174.145 327.395 172.842 332.702 172.807 338.09C172.773 343.477 174.006 348.8 176.411 353.644L190.714 382.609C193.006 387.315 196.067 391.623 199.774 395.362C202.463 398.042 205.471 400.394 208.734 402.368C216.985 407.305 226.552 409.714 236.208 409.285L270.144 374.358L257.555 357.674C258.429 354.749 258.955 351.735 259.123 348.692C259.364 344.454 259.515 341.747 257.897 339.057C255.976 335.862 252.65 334.484 250.751 333.896C250.628 332.612 249.906 326.254 244.328 321.818C241.767 319.813 238.681 318.555 235.424 318.189C235.362 316.197 235.256 313.292 235.088 309.79C234.181 291.091 232.938 287.067 229.919 284.371C229.214 283.74 226.744 281.538 223.154 281.45C222.499 281.45 219.794 281.368 217.683 283.048C215.253 285.008 214.99 289.175 214.838 297.443C214.637 308.264 214.889 309.093 214.726 311.925C214.48 316.268 214.178 332.639 206.578 331.739Z" fill="#77C8D6"/>
<path d="M229.376 346.88C233.495 337.957 235.584 328.263 235.497 318.469" stroke="#3B1534" stroke-width="5" stroke-miterlimit="10" stroke-linecap="round"/>
<path d="M244.446 353.183C244.446 353.183 248.926 349.296 250.751 333.896" stroke="#3B1534" stroke-width="5" stroke-miterlimit="10" stroke-linecap="round"/>
<path d="M249.508 370.372C253.487 367.075 256.303 362.631 257.555 357.673" stroke="#3B1534" stroke-width="5" stroke-miterlimit="10" stroke-linecap="round"/>
<path d="M133.19 125.979C129.897 123.879 126.049 122.768 122.121 122.782C118.192 122.797 114.353 123.937 111.076 126.062L110.88 144.437H133.745C133.551 138.284 133.366 132.132 133.19 125.979Z" fill="#77C8D6"/>
<path d="M122.186 130.014C128.115 130.014 132.922 128.399 132.922 126.407C132.922 124.415 128.115 122.8 122.186 122.8C116.258 122.8 111.451 124.415 111.451 126.407C111.451 128.399 116.258 130.014 122.186 130.014Z" stroke="#3B1534" stroke-width="5" stroke-miterlimit="10" stroke-linecap="round"/>
<path d="M125.552 144.437V130.86" stroke="#3B1534" stroke-width="5" stroke-miterlimit="10" stroke-linecap="round"/>
<path d="M117.908 144.019V130.442" stroke="#3B1534" stroke-width="5" stroke-miterlimit="10" stroke-linecap="round"/>
<path d="M137.385 144.437H106.982C103.342 144.437 100.391 147.33 100.391 150.898V199.655C100.391 203.224 103.342 206.117 106.982 206.117H137.385C141.025 206.117 143.976 203.224 143.976 199.655V150.898C143.976 147.33 141.025 144.437 137.385 144.437Z" fill="#F2EADA"/>
<path d="M128.313 195.043H101.321V158.162H128.313C128.63 158.162 128.943 158.223 129.236 158.342C129.528 158.461 129.794 158.635 130.018 158.855C130.241 159.075 130.418 159.336 130.539 159.623C130.66 159.91 130.722 160.217 130.721 160.528V192.699C130.716 193.322 130.461 193.919 130.01 194.358C129.558 194.797 128.949 195.043 128.313 195.043Z" fill="#FFB6DB"/>
<path d="M76.4568 217.212C76.7536 210.338 83.2384 208.153 89.2528 207.681C97.692 207.017 106.406 207.478 114.873 207.385" stroke="#3B1534" stroke-width="5" stroke-miterlimit="10" stroke-linecap="round"/>
<path d="M286.177 94.3345H394.195" stroke="#F2EADA" stroke-width="5" stroke-miterlimit="10" stroke-linecap="round"/>
<path d="M334.723 486.573L248.64 458.146C224.482 450.169 216.434 420.627 233.313 401.906L256.598 376.103C260.175 372.137 264.625 369.019 269.611 366.985C274.598 364.952 279.99 364.056 285.382 364.366L451.282 364.25C456.739 364.252 462.126 365.46 467.041 367.785C471.956 370.109 476.273 373.49 479.671 377.677C483.069 381.863 485.461 386.747 486.667 391.965C487.874 397.183 487.864 402.6 486.64 407.814C468.35 471.865 399.028 507.825 334.723 486.573Z" fill="#F2EADA"/>
<path d="M239.68 396.12C243.315 402.483 248.382 407.951 254.495 412.107C260.608 416.263 267.607 418.999 274.96 420.106" stroke="#3B1534" stroke-width="5" stroke-miterlimit="10" stroke-linecap="round"/>
<path d="M252.745 381.615C266.282 383.243 278.745 389.665 287.79 399.672" stroke="#3B1534" stroke-width="5" stroke-miterlimit="10" stroke-linecap="round"/>
<path d="M438.234 364.283L359.946 365.381C343.487 365.612 326.424 365.749 309.73 365.464C301.065 365.31 292.406 365.034 283.752 364.635C277.34 364.338 270.48 363.899 265.658 368.867" stroke="#3B1534" stroke-width="5" stroke-miterlimit="10" stroke-linecap="round"/>
<path d="M285.566 470.339L248.64 458.146C235.306 454.385 225.4 443.817 223.328 431.124C220.903 416.268 230.322 405.365 231.728 403.795" stroke="#3B1534" stroke-width="5" stroke-miterlimit="10" stroke-linecap="round"/>
<path d="M276.024 167.319L322.252 151.134" stroke="#77C8D6" stroke-width="5" stroke-miterlimit="10" stroke-linecap="round"/>
<path d="M276.024 182.927L314.423 169.68" stroke="#77C8D6" stroke-width="5" stroke-miterlimit="10" stroke-linecap="round"/>
</svg>
