<svg width="576" height="563" viewBox="0 0 576 563" fill="none" xmlns="http://www.w3.org/2000/svg">
<path d="M334.783 293.323H262.109C258.265 293.323 254.459 292.583 250.908 291.145C247.357 289.707 244.13 287.599 241.412 284.943C238.695 282.286 236.539 279.131 235.068 275.66C233.598 272.189 232.842 268.468 232.842 264.711V182.643C232.842 179.118 233.553 175.629 234.932 172.372C236.312 169.116 238.335 166.158 240.885 163.665C243.434 161.173 246.461 159.196 249.793 157.848C253.124 156.499 256.694 155.805 260.3 155.805H334.27C341.552 155.806 348.535 158.634 353.684 163.667C358.833 168.7 361.727 175.525 361.728 182.643V266.975C361.729 270.434 361.032 273.86 359.679 277.056C358.325 280.252 356.34 283.157 353.838 285.603C351.336 288.05 348.366 289.991 345.096 291.316C341.826 292.64 338.322 293.322 334.783 293.323Z" fill="#3B1534"/>
<path d="M476.519 326.709C512.546 326.709 541.751 298.163 541.751 262.949C541.751 227.736 512.546 199.189 476.519 199.189C440.492 199.189 411.287 227.736 411.287 262.949C411.287 298.163 440.492 326.709 476.519 326.709Z" fill="#3B1534"/>
<path d="M427.334 273.466C430.891 273.466 433.774 270.648 433.774 267.172C433.774 263.696 430.891 260.877 427.334 260.877C423.778 260.877 420.895 263.696 420.895 267.172C420.895 270.648 423.778 273.466 427.334 273.466Z" fill="#F2EADA"/>
<path d="M520.347 264.284C524.174 264.284 527.276 261.251 527.276 257.511C527.276 253.77 524.174 250.738 520.347 250.738C516.52 250.738 513.417 253.77 513.417 257.511C513.417 261.251 516.52 264.284 520.347 264.284Z" fill="#F2EADA"/>
<path d="M476.352 228.015C476.352 222.83 472.234 218.63 467.136 218.63C466.252 218.632 465.372 218.763 464.527 219.019C463.979 217.135 462.81 215.481 461.201 214.314C459.593 213.148 457.634 212.534 455.631 212.568C453.628 212.602 451.693 213.282 450.127 214.503C448.56 215.723 447.451 217.416 446.97 219.317C445.878 218.863 444.702 218.629 443.514 218.63C438.434 218.63 434.298 222.83 434.298 228.015C434.287 230.482 435.251 232.858 436.988 234.647C436.043 236.163 435.545 237.905 435.548 239.681C435.548 244.866 439.667 249.066 444.764 249.066C445.601 249.063 446.433 248.944 447.235 248.711C447.875 250.503 449.085 252.047 450.689 253.116C452.293 254.184 454.206 254.722 456.146 254.649C458.085 254.576 459.95 253.896 461.465 252.709C462.98 251.523 464.065 249.893 464.562 248.058C465.392 248.306 466.256 248.434 467.125 248.435C472.205 248.435 476.341 244.235 476.341 239.05C476.345 237.077 475.727 235.151 474.572 233.533C475.731 231.916 476.353 229.989 476.352 228.015Z" fill="#F2EADA"/>
<path d="M491.87 313.405C496.904 311.789 499.795 306.919 498.321 302.528C498.055 301.761 497.666 301.041 497.169 300.394C500.464 298.187 502.094 294.359 500.907 290.823C499.692 287.209 495.896 285.052 491.783 285.3C491.907 284.227 491.793 283.14 491.449 282.114C489.975 277.728 484.698 275.476 479.658 277.092C477.284 277.833 475.268 279.397 473.991 281.489C472.222 281.146 470.392 281.256 468.68 281.81C463.64 283.425 460.754 288.295 462.229 292.687C462.473 293.412 462.83 294.095 463.288 294.714C460.299 296.966 458.871 300.591 460 303.952C461.198 307.516 464.907 309.667 468.956 309.487C468.953 310.278 469.08 311.065 469.331 311.817C470.805 316.203 476.087 318.455 481.127 316.839C483.031 316.235 484.716 315.105 485.977 313.585C487.917 314.09 489.966 314.027 491.87 313.405Z" fill="#F2EADA"/>
<path d="M475.079 299.747L443.52 291.572C442.069 291.197 440.717 290.521 439.558 289.589C438.398 288.656 437.459 287.491 436.802 286.171C436.146 284.851 435.789 283.409 435.756 281.942C435.722 280.475 436.013 279.018 436.608 277.671L456.768 231.956C457.758 229.714 459.539 227.893 461.786 226.826C464.034 225.759 466.598 225.515 469.014 226.14L500.607 234.315C502.059 234.69 503.41 235.366 504.57 236.298C505.729 237.23 506.669 238.396 507.325 239.716C507.981 241.035 508.338 242.478 508.372 243.945C508.405 245.412 508.115 246.868 507.519 248.215L487.319 293.925C486.328 296.166 484.548 297.985 482.303 299.053C480.057 300.121 477.494 300.367 475.079 299.747Z" fill="#77C8D6"/>
<path d="M473.224 286.989L454.101 282.063C450.363 281.095 448.491 276.72 450.138 272.819L463.3 241.696C464.636 238.538 467.862 236.781 470.88 237.564L490.009 242.512C493.741 243.475 495.619 247.85 493.966 251.751L480.804 282.88C479.468 286.004 476.248 287.772 473.224 286.989Z" stroke="#3B1534" stroke-width="5" stroke-miterlimit="10" stroke-linecap="round"/>
<path d="M229.824 49.679C233.148 45.7801 236.844 42.1983 240.86 38.982C244.316 36.2289 247.928 33.4027 252.185 31.9389C255.894 30.6609 261.786 30.188 264.517 33.6279C267.973 37.9348 263.751 43.3903 261.124 46.9485C258.291 50.683 255.024 54.0837 251.39 57.0825" stroke="#3B1534" stroke-width="5" stroke-miterlimit="10" stroke-linecap="round"/>
<path d="M333.596 303.829H261.873C254.173 303.829 246.789 300.839 241.345 295.518C235.901 290.196 232.842 282.979 232.842 275.453V189.731H333.596V303.829Z" fill="#BD4632"/>
<path d="M333.596 293.317H273.681V320.555H333.596V293.317Z" fill="#BD4632"/>
<path d="M333.596 261.558C342.949 261.558 350.53 254.148 350.53 245.006C350.53 235.865 342.949 228.454 333.596 228.454C324.243 228.454 316.662 235.865 316.662 245.006C316.662 254.148 324.243 261.558 333.596 261.558Z" fill="#BD4632"/>
<path d="M347.184 230.881H269.718C267.324 230.881 264.954 230.421 262.743 229.526C260.531 228.631 258.522 227.319 256.829 225.665C255.137 224.011 253.795 222.047 252.879 219.885C251.963 217.724 251.492 215.407 251.493 213.067V185.334H347.184V230.881Z" fill="#3B1534"/>
<path d="M275.933 200.045C275.933 200.045 271.129 231.286 288.755 229.236" stroke="#FFACD2" stroke-width="5" stroke-miterlimit="10" stroke-linecap="round"/>
<path d="M300.096 200.045C300.096 200.045 295.287 231.286 312.912 229.236" stroke="#FFACD2" stroke-width="5" stroke-miterlimit="10" stroke-linecap="round"/>
<path d="M270 286.37C275.424 286.37 279.821 282.073 279.821 276.771C279.821 271.47 275.424 267.172 270 267.172C264.576 267.172 260.179 271.47 260.179 276.771C260.179 282.073 264.576 286.37 270 286.37Z" fill="#3B1534"/>
<path d="M273.681 303.829H299.192C299.482 303.833 299.761 303.939 299.978 304.128C300.194 304.317 300.334 304.576 300.372 304.857C300.41 305.138 300.343 305.424 300.183 305.661C300.023 305.898 299.782 306.071 299.503 306.148L273.681 312.938V303.829Z" fill="#3B1534"/>
<path d="M332.375 253.361C335.597 253.361 338.21 250.808 338.21 247.658C338.21 244.508 335.597 241.955 332.375 241.955C329.152 241.955 326.54 244.508 326.54 247.658C326.54 250.808 329.152 253.361 332.375 253.361Z" stroke="#3B1534" stroke-width="5" stroke-miterlimit="10" stroke-linecap="round"/>
<path d="M339.661 236.646C339.661 236.646 328.925 238.132 327.168 245.091" stroke="#3B1534" stroke-width="5" stroke-miterlimit="10" stroke-linecap="round"/>
<path d="M378.466 195.586C406.801 195.586 429.771 173.135 429.771 145.44C429.771 117.745 406.801 95.2935 378.466 95.2935C350.132 95.2935 327.162 117.745 327.162 145.44C327.162 173.135 350.132 195.586 378.466 195.586Z" fill="#3B1534"/>
<path d="M337.26 342.197H270V321.676C270 320.978 270.283 320.31 270.788 319.816C271.292 319.323 271.977 319.046 272.69 319.046H334.57C335.283 319.046 335.967 319.323 336.472 319.816C336.976 320.31 337.26 320.978 337.26 321.676V342.197Z" fill="#F2EADA"/>
<path d="M261.729 412.944C276.849 422.16 296.099 422.43 312.567 416.676C330.509 410.41 343.671 397.011 351.003 379.974C357.091 365.86 360.467 350.287 361.532 334.76H246.332C237.594 361.48 235.509 396.971 261.729 412.944Z" fill="#F2EADA"/>
<path d="M251.493 201.689C250.883 201.064 247.933 198.153 243.487 198.153C238.942 198.153 234.674 201.199 232.842 205.838V186.556L251.47 185.334L251.493 201.689Z" fill="#3B1534"/>
<path d="M271.008 337.186C272.235 337.519 280.944 339.709 288.921 334.287C293.329 331.217 296.401 326.646 297.533 321.473C297.711 321.31 297.907 321.164 298.011 321.22C298.114 321.276 298.057 321.608 298.051 321.642C297.936 322.29 301.415 330.087 307.267 334.163C313.908 338.746 324.76 339.343 335.681 335.374" stroke="#3B1534" stroke-width="5" stroke-miterlimit="10" stroke-linecap="round"/>
<path d="M295.189 363.051C297.342 363.051 299.088 361.344 299.088 359.239C299.088 357.134 297.342 355.428 295.189 355.428C293.035 355.428 291.289 357.134 291.289 359.239C291.289 361.344 293.035 363.051 295.189 363.051Z" fill="#3B1534"/>
<path d="M295.189 392.76C297.342 392.76 299.088 391.054 299.088 388.949C299.088 386.844 297.342 385.137 295.189 385.137C293.035 385.137 291.289 386.844 291.289 388.949C291.289 391.054 293.035 392.76 295.189 392.76Z" fill="#3B1534"/>
<path d="M390.591 334.76H361.532C360.467 350.287 357.091 365.86 351.003 379.974C343.653 397.011 330.509 410.427 312.566 416.676C296.099 422.43 276.854 422.16 261.729 412.944C235.509 396.971 237.594 361.48 246.321 334.76H237.779C231.949 334.759 226.176 335.881 220.789 338.061C215.403 340.241 210.509 343.438 206.387 347.467C202.264 351.496 198.995 356.28 196.764 361.545C194.533 366.809 193.385 372.452 193.386 378.15V533.932H366.555C384.703 533.932 402.108 526.886 414.941 514.342C427.774 501.799 434.984 484.787 434.984 467.048V378.15C434.984 366.642 430.307 355.606 421.981 347.469C413.656 339.331 402.365 334.76 390.591 334.76Z" fill="#FFB6DB"/>
<path d="M351.55 552.905L337.605 549.122C327.912 546.49 319.684 540.202 314.733 531.642C309.782 523.082 308.511 512.95 311.202 503.474L334.069 422.965C336.286 415.175 341.577 408.563 348.779 404.584C355.981 400.605 364.504 399.584 372.476 401.746L399.41 409.065C403.357 410.136 407.05 411.956 410.277 414.422C413.504 416.888 416.203 419.951 418.219 423.437C420.235 426.923 421.529 430.762 422.026 434.736C422.524 438.711 422.216 442.742 421.12 446.6L398.252 527.109C395.558 536.582 389.125 544.622 380.367 549.46C371.609 554.298 361.243 555.537 351.55 552.905Z" fill="#FFB6DB"/>
<path d="M369.176 552.821H356.625V411.852H434.961V488.498C434.961 505.554 428.03 521.911 415.694 533.973C403.358 546.036 386.625 552.815 369.176 552.821Z" fill="#FFB6DB"/>
<path d="M213.045 542.113L198.864 544.928C189.003 546.879 178.752 544.922 170.366 539.487C161.981 534.052 156.147 525.583 154.149 515.944L137.18 434.073C136.367 430.149 136.351 426.107 137.136 422.177C137.921 418.247 139.49 414.507 141.753 411.17C144.017 407.833 146.931 404.964 150.329 402.728C153.727 400.492 157.542 398.932 161.557 398.137L188.957 392.709C197.065 391.104 205.493 392.713 212.388 397.181C219.282 401.649 224.079 408.611 225.723 416.535L242.692 498.413C244.689 508.05 242.687 518.068 237.127 526.264C231.568 534.459 222.905 540.16 213.045 542.113Z" fill="#FFB6DB"/>
<path d="M228.597 533.932C231.69 531.376 234.363 528.37 236.523 525.02C245.929 510.382 242.058 493.948 240.843 489.472L228.597 430.385C228.235 427.803 227.729 425.241 227.082 422.712C224.991 414.531 222.347 404.2 213.707 398.193C210.608 396.069 207.068 394.639 203.339 394.004" stroke="#3B1534" stroke-width="5" stroke-miterlimit="10" stroke-linecap="round"/>
<path d="M317.607 533.932C317.607 533.932 308.736 520.927 310.925 505.574L332.681 427.88C332.681 427.88 335.561 407.893 355.196 402.854" stroke="#3B1534" stroke-width="5" stroke-miterlimit="10" stroke-linecap="round"/>
<path d="M411.598 416.62C411.598 416.62 428.262 425.853 420.48 448.846L406.829 494.342" stroke="#3B1534" stroke-width="5" stroke-miterlimit="10" stroke-linecap="round"/>
<path d="M355.681 396.388L354.982 399.263C353.97 403.426 356.602 407.602 360.86 408.592L404.447 418.718C408.706 419.707 412.979 417.135 413.991 412.972L414.69 410.096C415.703 405.934 413.071 401.758 408.812 400.768L365.225 390.642C360.966 389.653 356.694 392.225 355.681 396.388Z" fill="#F2EADA"/>
<path d="M362.304 397.771C360.334 397.338 364.032 380.718 364.384 379.552C368.462 365.415 376.157 356.616 383.115 348.587C388.938 341.871 399.162 330.076 405.579 332.429C406.428 332.726 407.167 333.266 407.699 333.977C411.731 339.607 399.18 353.598 398.483 354.386C398.483 354.386 424.288 342.631 441.521 338.481C442.19 338.324 442.852 338.144 443.514 337.918C446.308 337.085 455.916 334.873 459.844 342.377C459.844 342.377 467.205 339.191 470.713 343.503C471.432 344.404 471.874 345.486 471.986 346.622C472.234 348.824 471.617 352.5 465.425 354.093C465.425 354.093 474.065 356.74 469.924 363.895C468.537 366.223 466.435 368.065 463.916 369.159L438.336 380.622C429.164 384.678 421.16 390.889 415.037 398.7C412.751 401.608 410.796 404.751 409.208 408.074L362.304 397.771Z" fill="#BD4632"/>
<path d="M459.804 342.405L418.677 360.534" stroke="#3B1534" stroke-width="5" stroke-miterlimit="10" stroke-linecap="round"/>
<path d="M465.408 354.127C465.408 354.127 426.24 370.612 424.979 371.726" stroke="#3B1534" stroke-width="5" stroke-miterlimit="10" stroke-linecap="round"/>
<path d="M193.449 381.146L149.904 391.443C145.649 392.449 143.035 396.636 144.064 400.794L144.775 403.667C145.804 407.826 150.088 410.381 154.342 409.375L197.887 399.078C202.142 398.072 204.756 393.886 203.727 389.727L203.016 386.854C201.987 382.696 197.703 380.14 193.449 381.146Z" fill="#F2EADA"/>
<path d="M196.635 386.708C198.599 386.263 194.809 369.66 194.469 368.5C190.322 354.38 182.586 345.614 175.594 337.62C169.736 330.931 159.466 319.182 153.072 321.563C152.224 321.862 151.487 322.403 150.958 323.117C146.926 328.747 159.569 342.698 160.289 343.486C160.289 343.486 134.427 331.849 117.176 327.779C116.508 327.621 115.839 327.446 115.183 327.255C112.383 326.433 102.764 324.266 98.8704 331.787C98.8704 331.787 91.4918 328.634 88.007 332.958C87.2894 333.871 86.8519 334.965 86.7456 336.111C86.5152 338.312 87.1488 341.989 93.3465 343.548C93.3465 343.548 84.7354 346.239 88.8941 353.373C90.2911 355.694 92.4013 357.526 94.9248 358.609L120.516 369.891C129.715 373.915 137.75 380.105 143.902 387.907C146.202 390.804 148.172 393.938 149.777 397.253L196.635 386.708Z" fill="#BD4632"/>
<path d="M98.8706 331.787L140.083 349.724" stroke="#3B1534" stroke-width="5" stroke-miterlimit="10" stroke-linecap="round"/>
<path d="M93.3467 343.52C93.3467 343.52 132.578 359.847 133.857 360.939" stroke="#3B1534" stroke-width="5" stroke-miterlimit="10" stroke-linecap="round"/>
<path d="M118.368 302.235C154.395 302.235 183.6 273.689 183.6 238.476C183.6 203.262 154.395 174.716 118.368 174.716C82.3416 174.716 53.1362 203.262 53.1362 238.476C53.1362 273.689 82.3416 302.235 118.368 302.235Z" fill="#F2EADA"/>
<path d="M73.1521 235.7C76.5368 235.7 79.2807 233.018 79.2807 229.71C79.2807 226.401 76.5368 223.719 73.1521 223.719C69.7673 223.719 67.0234 226.401 67.0234 229.71C67.0234 233.018 69.7673 235.7 73.1521 235.7Z" fill="#77C8D6"/>
<path d="M155.641 238.481C159.026 238.481 161.769 235.799 161.769 232.491C161.769 229.182 159.026 226.5 155.641 226.5C152.256 226.5 149.512 229.182 149.512 232.491C149.512 235.799 152.256 238.481 155.641 238.481Z" fill="#77C8D6"/>
<path d="M133.632 266.243L108.616 276.067L95.0054 242.951L120.021 233.127C120.632 232.889 121.313 232.898 121.918 233.15C122.522 233.402 123 233.877 123.247 234.472L135.009 263.095C135.13 263.39 135.191 263.706 135.188 264.024C135.185 264.342 135.117 264.656 134.989 264.948C134.861 265.241 134.675 265.506 134.443 265.728C134.21 265.95 133.934 266.125 133.632 266.243Z" fill="#FFB6DB"/>
<path d="M122.89 217.679L96.2194 228.153C92.7452 229.517 91.0603 233.376 92.4563 236.772L110.171 279.866C111.567 283.262 115.515 284.908 118.989 283.544L145.659 273.07C149.134 271.705 150.818 267.846 149.422 264.451L131.708 221.357C130.312 217.961 126.364 216.315 122.89 217.679Z" stroke="#3B1534" stroke-width="5" stroke-miterlimit="10" stroke-linecap="round"/>
</svg>
