<svg width="70" height="67" viewBox="0 0 70 67" fill="none" xmlns="http://www.w3.org/2000/svg">
<g id="Group">
<path id="Vector" d="M2.1875 42.8354C2.76766 42.8354 3.32406 43.089 3.7343 43.5402C4.14453 43.9915 4.375 44.6035 4.375 45.2417V57.2729C4.375 58.5493 4.83594 59.7734 5.65641 60.6759C6.47688 61.5784 7.58968 62.0854 8.75 62.0854H61.25C62.4103 62.0854 63.5231 61.5784 64.3436 60.6759C65.1641 59.7734 65.625 58.5493 65.625 57.2729V45.2417C65.625 44.6035 65.8555 43.9915 66.2657 43.5402C66.6759 43.089 67.2323 42.8354 67.8125 42.8354C68.3927 42.8354 68.9491 43.089 69.3593 43.5402C69.7695 43.9915 70 44.6035 70 45.2417V57.2729C70 59.8257 69.0781 62.2738 67.4372 64.0789C65.7962 65.8839 63.5706 66.8979 61.25 66.8979H8.75C6.42936 66.8979 4.20376 65.8839 2.56282 64.0789C0.921872 62.2738 0 59.8257 0 57.2729V45.2417C0 44.6035 0.230468 43.9915 0.640704 43.5402C1.05094 43.089 1.60734 42.8354 2.1875 42.8354Z" fill="#F55656"/>
<path id="Vector_2" d="M33.4513 0.706926C33.6545 0.482841 33.8959 0.305053 34.1617 0.183747C34.4274 0.0624412 34.7123 0 35.0001 0C35.2878 0 35.5727 0.0624412 35.8385 0.183747C36.1042 0.305053 36.3456 0.482841 36.5488 0.706926L49.6738 15.1444C50.0846 15.5963 50.3153 16.2091 50.3153 16.8481C50.3153 17.487 50.0846 18.0998 49.6738 18.5517C49.2631 19.0035 48.706 19.2573 48.1251 19.2573C47.5442 19.2573 46.9871 19.0035 46.5763 18.5517L37.1876 8.21924V50.5355C37.1876 51.1737 36.9571 51.7858 36.5469 52.237C36.1366 52.6883 35.5802 52.9418 35.0001 52.9418C34.4199 52.9418 33.8635 52.6883 33.4533 52.237C33.043 51.7858 32.8126 51.1737 32.8126 50.5355V8.21924L23.4238 18.5517C23.2204 18.7754 22.979 18.9529 22.7133 19.0739C22.4475 19.195 22.1627 19.2573 21.8751 19.2573C21.5874 19.2573 21.3026 19.195 21.0369 19.0739C20.7712 18.9529 20.5297 18.7754 20.3263 18.5517C20.1229 18.328 19.9616 18.0624 19.8515 17.77C19.7415 17.4777 19.6848 17.1644 19.6848 16.8481C19.6848 16.5317 19.7415 16.2184 19.8515 15.9261C19.9616 15.6337 20.1229 15.3681 20.3263 15.1444L33.4513 0.706926Z" fill="#F55656"/>
</g>
</svg>
